<?xml version="1.0" encoding="UTF-8"?>
<svg version="1.1" xmlns="http://www.w3.org/2000/svg" width="500" height="500">
<path d="M0 0 C0.98871094 0.59296875 1.97742188 1.1859375 2.99609375 1.796875 C10.29007696 6.17501618 17.22496384 10.89763766 24.1015625 15.8984375 C26.04033252 17.30417641 28.00742957 18.67161971 30 20 C30 20.66 30 21.32 30 22 C30.598125 22.28875 31.19625 22.5775 31.8125 22.875 C34 24 34 24 37 26 C37 26.66 37 27.32 37 28 C37.57073242 28.24621094 38.14146484 28.49242187 38.72949219 28.74609375 C41.3784281 30.20898997 43.18548546 31.92645319 45.328125 34.0625 C46.12734375 34.85914062 46.9265625 35.65578125 47.75 36.4765625 C48.9875 37.72566406 48.9875 37.72566406 50.25 39 C51.09046875 39.83273438 51.9309375 40.66546875 52.796875 41.5234375 C53.5909375 42.32007812 54.385 43.11671875 55.203125 43.9375 C55.93176758 44.66839844 56.66041016 45.39929688 57.41113281 46.15234375 C59 48 59 48 59 50 C59.66 50 60.32 50 61 50 C62.79539556 52.0897227 64.47061442 54.17842082 66.125 56.375 C66.59292969 56.97828125 67.06085938 57.5815625 67.54296875 58.203125 C71 62.73858874 71 62.73858874 71 65 C71.66 65 72.32 65 73 65 C74.45193773 66.99219362 75.76761096 68.97052254 77.0625 71.0625 C77.46098145 71.69808838 77.85946289 72.33367676 78.27001953 72.98852539 C79.1072546 74.32899042 79.94083944 75.67174135 80.77099609 77.01660156 C81.90163337 78.84125338 83.05155646 80.65196075 84.20703125 82.4609375 C118.05209363 136.2144109 126.02915473 202.03430516 112.81640625 263.6015625 C110.79120963 272.03180679 108.45005685 280.04303344 105 288 C104.33143669 289.82819523 103.66316377 291.65654772 103.01049805 293.49047852 C93.68059901 319.51564285 78.18528291 345.12830268 59 365 C57.88766193 366.28463645 56.7829805 367.57595833 55.6875 368.875 C47.62232341 378.11951845 38.83809089 386.66408251 29 394 C28.46181641 394.40927734 27.92363281 394.81855469 27.36914062 395.24023438 C-26.36652149 436.09365119 -89.86329104 452.32094933 -156.80126953 443.44873047 C-180.58525718 440.1122193 -204.42220062 433.09705147 -225.5625 421.5625 C-226.28937012 421.17054443 -227.01624023 420.77858887 -227.76513672 420.37475586 C-229.20120486 419.59966159 -230.63615489 418.82249111 -232.06982422 418.04296875 C-233.70613665 417.1587888 -235.35386174 416.29578063 -237.00390625 415.4375 C-249.27710294 408.99910174 -260.39955142 400.92297086 -271.171875 392.25 C-273.96908824 389.95998553 -273.96908824 389.95998553 -277 388 C-277 387.34 -277 386.68 -277 386 C-277.8647998 385.62198242 -277.8647998 385.62198242 -278.74707031 385.23632812 C-281.28477516 383.84372546 -282.99768299 382.26116622 -285.046875 380.21875 C-285.80532715 379.4644873 -286.5637793 378.71022461 -287.34521484 377.93310547 C-288.5355835 376.72871826 -288.5355835 376.72871826 -289.75 375.5 C-290.56549316 374.67773926 -291.38098633 373.85547852 -292.22119141 373.00830078 C-297.5442812 367.59311972 -302.50030307 362.12253845 -307 356 C-307.92502195 354.80049083 -308.85230867 353.60272643 -309.78125 352.40625 C-320.53738315 338.45801849 -329.52142594 323.94660383 -337 308 C-337.38389893 307.20223145 -337.76779785 306.40446289 -338.16333008 305.58251953 C-341.69768718 298.075029 -344.46444709 290.37401107 -347.0625 282.5 C-347.28132843 281.83815704 -347.50015686 281.17631409 -347.72561646 280.49441528 C-361.75657726 237.81880807 -363.17429668 190.57556406 -352 147 C-351.74234863 145.99332275 -351.74234863 145.99332275 -351.47949219 144.96630859 C-349.76072267 138.38416582 -347.69840666 132.24390806 -345 126 C-344.34868857 124.18817002 -343.69765962 122.37619761 -343.06054688 120.55932617 C-339.86018237 111.52923786 -335.67632383 103.24542837 -331.03564453 94.87890625 C-330.12787637 93.23199825 -329.24719819 91.57021815 -328.37109375 89.90625 C-325.21431808 83.91955826 -321.65004867 78.31427241 -317.83203125 72.7265625 C-315.96504606 70.02326929 -315.96504606 70.02326929 -314.38671875 67.1484375 C-313.92910156 66.43945312 -313.47148437 65.73046875 -313 65 C-312.34 65 -311.68 65 -311 65 C-310.71125 64.236875 -310.4225 63.47375 -310.125 62.6875 C-309 60 -309 60 -307 57 C-306.34 57 -305.68 57 -305 57 C-304.74605469 56.42894531 -304.49210937 55.85789062 -304.23046875 55.26953125 C-300.03674074 47.53443292 -292.2131622 41.0977374 -286.0625 34.875 C-285.39968018 34.19912842 -284.73686035 33.52325684 -284.05395508 32.8269043 C-283.11652466 31.88778198 -283.11652466 31.88778198 -282.16015625 30.9296875 C-281.59949463 30.36491699 -281.03883301 29.80014648 -280.46118164 29.21826172 C-279 28 -279 28 -277 28 C-277 27.34 -277 26.68 -277 26 C-272.52941176 22 -272.52941176 22 -270 22 C-270 21.34 -270 20.68 -270 20 C-268.63330078 18.75415039 -268.63330078 18.75415039 -266.6953125 17.34765625 C-265.97609619 16.82397461 -265.25687988 16.30029297 -264.51586914 15.76074219 C-263.72688232 15.20032227 -262.93789551 14.63990234 -262.125 14.0625 C-260.90574829 13.19286621 -260.90574829 13.19286621 -259.66186523 12.30566406 C-242.37004559 0.11222286 -224.22010269 -10.23223186 -204.078125 -16.9296875 C-200.94097036 -17.96980517 -200.94097036 -17.96980517 -197.7890625 -19.4453125 C-193.06043684 -21.50660834 -188.1112731 -22.72265481 -183.125 -24 C-182.10486816 -24.26200195 -181.08473633 -24.52400391 -180.03369141 -24.79394531 C-121.3601971 -39.57970271 -51.79590378 -33.35150877 0 0 Z M-29 296 C-29.33 296.66 -29.66 297.32 -30 298 C-29.01 298 -28.02 298 -27 298 C-27 297.34 -27 296.68 -27 296 C-27.66 296 -28.32 296 -29 296 Z M-12 308 C-11.36020151 310.03241727 -11.36020151 310.03241727 -10 312 C-7.44480079 312.81171228 -7.44480079 312.81171228 -5 313 C-5 311.35 -5 309.7 -5 308 C-8.13349732 306.95550089 -8.98968256 307.06576355 -12 308 Z M-51 310 C-50 312 -50 312 -50 312 Z M-110 312 C-109 316 -109 316 -109 316 Z M-53.6875 313.4375 C-56.487723 315.32954257 -58.67155714 315.58394464 -62 316 C-63.33737094 316.31674575 -64.67288808 316.64270064 -66 317 C-62.74917327 319.16721782 -61.70767847 319.27221018 -57.9375 319.25 C-57.05964844 319.25515625 -56.18179687 319.2603125 -55.27734375 319.265625 C-52.80197672 319.21559352 -52.80197672 319.21559352 -51 317 C-50.83312552 314.41645782 -50.83312552 314.41645782 -51 312 C-52.24258754 311.89192226 -52.24258754 311.89192226 -53.6875 313.4375 Z M-89 313 C-89.33 314.32 -89.66 315.64 -90 317 C-88.02 317.99 -88.02 317.99 -86 319 C-84.70366379 317.93354885 -84.70366379 317.93354885 -84.9375 315.4375 C-84.958125 314.633125 -84.97875 313.82875 -85 313 C-86.32 313 -87.64 313 -89 313 Z M-32 315 C-32.66 316.32 -33.32 317.64 -34 319 C-32.39125 319.7734375 -32.39125 319.7734375 -30.75 320.5625 C-30.14671875 320.85253906 -29.5434375 321.14257812 -28.921875 321.44140625 C-26.59532334 322.11761944 -25.26760041 321.75753907 -23 321 C-23.92786789 319.99105628 -24.86768433 318.99309093 -25.8125 318 C-26.33457031 317.443125 -26.85664063 316.88625 -27.39453125 316.3125 C-29.04148967 314.683535 -29.04148967 314.683535 -32 315 Z " fill="#12151D" transform="translate(370,43)"/>
<path d="M0 0 C0.61359375 0.2676416 1.2271875 0.5352832 1.859375 0.81103516 C9.67583871 4.25698132 16.51959683 8.4291271 23 14 C23.65097656 14.49628906 24.30195313 14.99257812 24.97265625 15.50390625 C39.24627841 26.82632224 47.83657528 45.20985455 50 63 C51.88268104 86.93402922 45.71309441 107.117906 31 126 C30.22398437 127.010625 29.44796875 128.02125 28.6484375 129.0625 C25.5892633 132.45556637 22.33346917 134.98885927 18.625 137.625 C17.99078125 138.0890625 17.3565625 138.553125 16.703125 139.03125 C10.82850816 143.27536094 5.02120946 146.90194919 -1.9375 149.125 C-2.89527344 149.43695313 -3.85304688 149.74890625 -4.83984375 150.0703125 C-6.40412109 150.53050781 -6.40412109 150.53050781 -8 151 C-9.12664062 151.36222656 -10.25328125 151.72445312 -11.4140625 152.09765625 C-17.28932042 153.5310208 -23.34234309 153.3348117 -29.35375977 153.31567383 C-31.42973301 153.31251183 -33.50427998 153.33604046 -35.58007812 153.36132812 C-42.24932624 153.39080315 -47.9897062 153.06091794 -54.234375 150.60083008 C-58.74521993 149.06582049 -62.89946767 151.720556 -66.9375 153.625 C-68.63326172 154.42164063 -68.63326172 154.42164063 -70.36328125 155.234375 C-72.8770425 156.44295359 -75.37022368 157.68699763 -77.85546875 158.953125 C-78.48525635 159.2732959 -79.11504395 159.5934668 -79.76391602 159.92333984 C-81.54678812 160.83500657 -83.32430992 161.75711369 -85.1015625 162.6796875 C-88 164 -88 164 -91 164 C-90.9685791 162.95134766 -90.9371582 161.90269531 -90.90478516 160.82226562 C-90.79551752 156.90135887 -90.72706449 152.98058428 -90.67041016 149.05859375 C-90.64038683 147.36695668 -90.59955362 145.67547333 -90.54736328 143.984375 C-89.79072713 133.03085338 -89.79072713 133.03085338 -93.765625 123.23046875 C-94.82292342 122.13318977 -95.89967309 121.05412609 -97 120 C-102.74212789 111.71376206 -106.63030219 103.8072642 -109 94 C-109.17515137 93.32573975 -109.35030273 92.65147949 -109.53076172 91.95678711 C-114.15927434 73.13100362 -111.17053513 52.14897851 -101.98046875 35.1796875 C-98.76803184 30.02204717 -95.09189493 25.48093757 -91 21 C-90.31292969 20.22011719 -89.62585938 19.44023437 -88.91796875 18.63671875 C-82.79186606 12.05598878 -75.67769133 7.54431372 -68 3 C-67.29101562 2.566875 -66.58203125 2.13375 -65.8515625 1.6875 C-63.93705928 0.61738466 -62.04619971 -0.20875371 -60 -1 C-59.07703125 -1.36996094 -58.1540625 -1.73992187 -57.203125 -2.12109375 C-39.447639 -8.03277054 -17.10021609 -7.7145293 0 0 Z " fill="#476FD4" transform="translate(282,133)"/>
<path d="M0 0 C10.24807516 1.45902036 19.65600154 9.62944704 28.0625 15.3125 C34.22583186 19.47136354 40.38618445 23.62436666 46.64463806 27.63868713 C49.15812114 29.25200289 51.66321943 30.87809514 54.16793823 32.50497437 C55.38511426 33.29061483 56.60624886 34.0701574 57.83132935 34.84341431 C59.54355812 35.92524847 61.24092586 37.03049602 62.9375 38.13671875 C63.91589844 38.76280029 64.89429688 39.38888184 65.90234375 40.03393555 C68 42 68 42 68.42407227 44.63769531 C68 47 68 47 66.27734375 48.66015625 C65.50519531 49.12292969 64.73304688 49.58570313 63.9375 50.0625 C63.18339844 50.52785156 62.42929687 50.99320313 61.65234375 51.47265625 C59.6551524 52.62273257 57.65140286 53.76143145 55.64453125 54.89453125 C51.92910681 57.01370666 48.33439252 59.29242062 44.75 61.625 C44.05052246 62.07866943 43.35104492 62.53233887 42.63037109 62.99975586 C31.87439267 70.00330511 21.21825228 77.1600698 10.54931641 84.29516602 C4.63468873 88.25052371 4.63468873 88.25052371 0 88 C0.44548399 80.76315806 2.74778287 74.428496 5.23803711 67.65332031 C5.93999396 65.74321365 6.63016504 63.82916569 7.31835938 61.9140625 C10.69874211 52.58955141 10.69874211 52.58955141 12.12329102 49.80175781 C13.91045164 46.12889638 13.48099507 42.49755054 12.25537109 38.68164062 C11.93133301 37.82763672 11.60729492 36.97363281 11.2734375 36.09375 C8.85354499 29.61001042 6.53769629 23.0939847 4.25 16.5625 C3.83878906 15.40556641 3.42757812 14.24863281 3.00390625 13.05664062 C2.61589844 11.94611328 2.22789062 10.83558594 1.828125 9.69140625 C1.4765332 8.69310791 1.12494141 7.69480957 0.76269531 6.66625977 C0 4 0 4 0 0 Z " fill="#FAFBFD" transform="translate(224,163)"/>
<path d="M0 0 C0.61359375 0.2676416 1.2271875 0.5352832 1.859375 0.81103516 C9.67195598 4.25526959 16.53023399 8.42045373 23 14 C23.68578125 14.54269531 24.3715625 15.08539063 25.078125 15.64453125 C30.28817037 19.89012166 35.09430234 24.87341035 38 31 C37.68359375 33.8046875 37.68359375 33.8046875 37 36 C36.01 35.34 35.02 34.68 34 34 C34 33.34 34 32.68 34 32 C33.34 32 32.68 32 32 32 C32 31.34 32 30.68 32 30 C31.34 30 30.68 30 30 30 C30 29.01 30 28.02 30 27 C28.02 26.67 26.04 26.34 24 26 C24 25.01 24 24.02 24 23 C21.69 22.34 19.38 21.68 17 21 C17 20.34 17 19.68 17 19 C16.4225 18.731875 15.845 18.46375 15.25 18.1875 C13 17 13 17 11.296875 15.52734375 C8.28590762 13.52515286 5.54047753 13.05759207 2 12.375 C0.1746875 12.01535156 0.1746875 12.01535156 -1.6875 11.6484375 C-2.780625 11.43445313 -3.87375 11.22046875 -5 11 C-5.763125 10.80664062 -6.52625 10.61328125 -7.3125 10.4140625 C-9.03413759 9.92056615 -9.03413759 9.92056615 -11 10 C-11.99 9.01 -11.99 9.01 -13 8 C-15.19502323 7.68948751 -15.19502323 7.68948751 -17.7265625 7.734375 C-18.67660156 7.73179687 -19.62664062 7.72921875 -20.60546875 7.7265625 C-22.10013672 7.73816406 -22.10013672 7.73816406 -23.625 7.75 C-24.59824219 7.74226562 -25.57148438 7.73453125 -26.57421875 7.7265625 C-32.42265292 7.74230526 -37.38557088 8.38623513 -43 10 C-44.51906339 10.24061964 -46.03973176 10.47156417 -47.5625 10.6875 C-58.02183896 12.74056963 -67.86769094 18.26231856 -76 25 C-77.3321881 25.93912666 -78.66555235 26.87658681 -80 27.8125 C-84.58442669 31.25082002 -88.65966345 35.33596625 -92 40 C-92 40.99 -92 41.98 -92 43 C-95 45.1875 -95 45.1875 -98 47 C-98.33 46.34 -98.66 45.68 -99 45 C-99.99 44.67 -100.98 44.34 -102 44 C-102 44.99 -102 45.98 -102 47 C-102.66 47 -103.32 47 -104 47 C-104.144375 47.804375 -104.28875 48.60875 -104.4375 49.4375 C-105 52 -105 52 -106 53 C-106.04080783 54.99958364 -106.04254356 57.00045254 -106 59 C-105.34 59 -104.68 59 -104 59 C-103.84316168 61.74467062 -103.86653652 63.68002269 -104.93359375 66.23828125 C-106.1887837 69.48890138 -106.69339707 72.55242467 -107.1875 76 C-107.36667969 77.19625 -107.54585937 78.3925 -107.73046875 79.625 C-107.98079028 82.7594609 -107.69806808 84.97330182 -107 88 C-107.4375 91.3125 -107.4375 91.3125 -108 94 C-108.33 94 -108.66 94 -109 94 C-113.95032563 74.33730659 -111.657493 53.0481374 -101.98046875 35.1796875 C-98.76803184 30.02204717 -95.09189493 25.48093757 -91 21 C-90.31292969 20.22011719 -89.62585938 19.44023437 -88.91796875 18.63671875 C-82.79186606 12.05598878 -75.67769133 7.54431372 -68 3 C-67.29101562 2.566875 -66.58203125 2.13375 -65.8515625 1.6875 C-63.93705928 0.61738466 -62.04619971 -0.20875371 -60 -1 C-59.07703125 -1.36996094 -58.1540625 -1.73992187 -57.203125 -2.12109375 C-39.447639 -8.03277054 -17.10021609 -7.7145293 0 0 Z " fill="#1AB5E0" transform="translate(282,133)"/>
<path d="M0 0 C0.33 0 0.66 0 1 0 C2.51334448 16.17597104 -5.02815194 29.23886995 -14 42 C-14.55300781 42.79148437 -15.10601562 43.58296875 -15.67578125 44.3984375 C-23.45872538 54.2528112 -37.05017073 63.32743709 -48.9375 67.125 C-49.89527344 67.43695313 -50.85304688 67.74890625 -51.83984375 68.0703125 C-53.40412109 68.53050781 -53.40412109 68.53050781 -55 69 C-56.12664062 69.36222656 -57.25328125 69.72445312 -58.4140625 70.09765625 C-64.28932042 71.5310208 -70.34234309 71.3348117 -76.35375977 71.31567383 C-78.42973301 71.31251183 -80.50427998 71.33604046 -82.58007812 71.36132812 C-89.24932624 71.39080315 -94.9897062 71.06091794 -101.234375 68.60083008 C-105.74521993 67.06582049 -109.89946767 69.720556 -113.9375 71.625 C-115.63326172 72.42164063 -115.63326172 72.42164063 -117.36328125 73.234375 C-119.8770425 74.44295359 -122.37022368 75.68699763 -124.85546875 76.953125 C-125.48525635 77.2732959 -126.11504395 77.5934668 -126.76391602 77.92333984 C-128.54678812 78.83500657 -130.32430992 79.75711369 -132.1015625 80.6796875 C-135 82 -135 82 -138 82 C-137.9685791 80.95134766 -137.9371582 79.90269531 -137.90478516 78.82226562 C-137.79551752 74.90135887 -137.72706449 70.98058428 -137.67041016 67.05859375 C-137.64038683 65.36695668 -137.59955362 63.67547333 -137.54736328 61.984375 C-136.82815653 50.81440534 -136.82815653 50.81440534 -141.0234375 40.84375 C-142.58948073 39.15565315 -142.58948073 39.15565315 -144 38 C-141 38 -141 38 -138.875 39.8125 C-135.69188673 43.52613215 -135.88100804 46.70277599 -135.90234375 51.41796875 C-135.90556641 52.67158203 -135.90878906 53.92519531 -135.91210938 55.21679688 C-135.92048828 56.52712891 -135.92886719 57.83746094 -135.9375 59.1875 C-135.94251683 60.52278481 -135.94707941 61.85807141 -135.95117188 63.19335938 C-135.96297305 66.46228473 -135.97943703 69.73111991 -136 73 C-135.34 73 -134.68 73 -134 73 C-134.33 74.32 -134.66 75.64 -135 77 C-133.68 77 -132.36 77 -131 77 C-130.505 76.01 -130.505 76.01 -130 75 C-130.66 74.67 -131.32 74.34 -132 74 C-130.9275 73.5875 -129.855 73.175 -128.75 72.75 C-125.45490223 71.3587365 -123.44823644 69.62958728 -121 67 C-120.34 67 -119.68 67 -119 67 C-118.773125 66.4225 -118.54625 65.845 -118.3125 65.25 C-116.52950156 62.19343124 -115.09098636 60.77567301 -112 59 C-109.73389108 59.00880042 -107.63629804 59.33160798 -105.40234375 59.70703125 C-102.89258849 60.01309897 -100.81021784 59.84959626 -98.3125 59.5 C-95.62337252 59.13036048 -93.89624106 59.01844603 -91.1875 59.5 C-78.37840837 61.50926928 -60.39008883 58.18168793 -49 52 C-45.92063899 50.66114739 -44.36246468 50 -41 50 C-41 49.34 -41 48.68 -41 48 C-39.49609375 46.8515625 -39.49609375 46.8515625 -37.4375 45.625 C-36.77621094 45.22539062 -36.11492187 44.82578125 -35.43359375 44.4140625 C-33.52215889 43.30340532 -31.58222908 42.24177216 -29.6328125 41.19921875 C-25.7688767 38.9927367 -22.65008833 36.24398776 -19.4375 33.1875 C-18.59106934 32.39182617 -18.59106934 32.39182617 -17.72753906 31.58007812 C-10.77664696 25.6674494 -10.77664696 25.6674494 -6.609375 18.0625 C-6 16 -6 16 -4.015625 14.140625 C-1.43218265 11.39696917 -1.23241477 9.44851322 -0.75 5.75 C-0.60046875 4.67234375 -0.4509375 3.5946875 -0.296875 2.484375 C-0.14992188 1.25460938 -0.14992188 1.25460938 0 0 Z " fill="#8C44E3" transform="translate(329,215)"/>
<path d="M0 0 C5.7234375 -0.12375 5.7234375 -0.12375 11.5625 -0.25 C12.75174072 -0.28641602 13.94098145 -0.32283203 15.16625977 -0.36035156 C21.67512732 -0.42829496 25.75429926 0.02709902 31 4 C32.53214888 7.06429776 32.22938548 9.6165642 32 13 C30.5 15.9375 30.5 15.9375 29 18 C29.825 18.680625 30.65 19.36125 31.5 20.0625 C34 23 34 23 34.4375 26.625 C34 30 34 30 32 33 C32 31.35 32 29.7 32 28 C30.68 28.33 29.36 28.66 28 29 C28.33 31.31 28.66 33.62 29 36 C25.65613602 37.01085428 22.6251882 37.11543463 19.140625 37.09765625 C18.13547852 37.09515869 17.13033203 37.09266113 16.09472656 37.09008789 C14.19158691 37.07643188 14.19158691 37.07643188 12.25 37.0625 C8.2075 37.041875 4.165 37.02125 0 37 C0 24.79 0 12.58 0 0 Z M7 27 C8 31 8 31 8 31 Z " fill="#F3F4F5" transform="translate(253,328)"/>
<path d="M0 0 C2.97 0 5.94 0 9 0 C12.96 6.93 16.92 13.86 21 21 C23.11718426 18.17708765 24.62913204 15.95762625 26.1640625 12.890625 C26.56496094 12.13652344 26.96585938 11.38242187 27.37890625 10.60546875 C28.21107207 9.03244057 29.01847098 7.44606428 29.80078125 5.84765625 C30.20941406 5.09871094 30.61804688 4.34976562 31.0390625 3.578125 C31.39178223 2.89137695 31.74450195 2.20462891 32.10791016 1.49707031 C34 0 34 0 43 0 C43 12.21 43 24.42 43 37 C40.03 37 37.06 37 34 37 C33.67 30.73 33.34 24.46 33 18 C30.03 23.28 27.06 28.56 24 34 C22.35 34 20.7 34 19 34 C16.03 28.72 13.06 23.44 10 18 C9.67 24.6 9.34 31.2 9 38 C6.03 38 3.06 38 0 38 C0 25.46 0 12.92 0 0 Z " fill="#F1F2F2" transform="translate(200,328)"/>
<path d="M0 0 C9 0 9 0 11.6015625 2.08984375 C12.26929688 3.02957031 12.93703125 3.96929687 13.625 4.9375 C14.35847656 5.93265625 15.09195313 6.9278125 15.84765625 7.953125 C16.91306641 9.46132813 16.91306641 9.46132813 18 11 C19.34617256 12.73539741 20.6995239 14.46526863 22.0625 16.1875 C23.5165625 18.0746875 23.5165625 18.0746875 25 20 C25.33 13.4 25.66 6.8 26 0 C28.97 0 31.94 0 35 0 C35 12.21 35 24.42 35 37 C27 37 27 37 25 35.625 C24 34 24 34 24 32 C23.34 32 22.68 32 22 32 C20.4140625 30.20703125 20.4140625 30.20703125 18.625 27.8125 C16.12742315 24.49523383 13.59686998 21.24608747 11 18 C10.67 24.6 10.34 31.2 10 38 C6.7 38 3.4 38 0 38 C0 25.46 0 12.92 0 0 Z " fill="#F1F2F2" transform="translate(135,328)"/>
<path d="M0 0 C3.3 0 6.6 0 10 0 C10.02505615 0.77190674 10.0501123 1.54381348 10.07592773 2.33911133 C10.19184007 5.83041181 10.31458824 9.32143922 10.4375 12.8125 C10.47681641 14.02744141 10.51613281 15.24238281 10.55664062 16.49414062 C10.61948242 18.23920898 10.61948242 18.23920898 10.68359375 20.01953125 C10.72025146 21.09307861 10.75690918 22.16662598 10.79467773 23.27270508 C10.89541847 26.09311553 10.89541847 26.09311553 12 29 C14.64 29.33 17.28 29.66 20 30 C16.77208445 32.1519437 15.71599191 32.20086443 12 32 C13.03406673 33.25949049 13.03406673 33.25949049 15.28515625 33.09765625 C16.20167969 33.08605469 17.11820312 33.07445312 18.0625 33.0625 C18.98160156 33.05347656 19.90070313 33.04445313 20.84765625 33.03515625 C21.55792969 33.02355469 22.26820313 33.01195312 23 33 C24.64802525 28.67179527 25.23933471 25.13014416 25.1953125 20.5078125 C25.18886719 19.30898438 25.18242187 18.11015625 25.17578125 16.875 C25.15902344 15.6375 25.14226562 14.4 25.125 13.125 C25.11597656 11.86429687 25.10695313 10.60359375 25.09765625 9.3046875 C25.07415808 6.2029296 25.04130334 3.10156348 25 0 C28.3 0 31.6 0 35 0 C35.10869203 3.81327872 35.18765644 7.62340992 35.25 11.4375 C35.30027344 13.04141602 35.30027344 13.04141602 35.3515625 14.67773438 C35.43517487 21.51304599 34.84391047 27.18907634 31 33 C26.74485177 37.12921429 22.84034081 38.32609086 16.9375 38.5625 C11.42003984 38.2911495 8.26174543 37.55145453 4 34 C-0.62707353 26.94288066 -0.48634161 20.77195647 -0.25 12.5 C-0.23195313 11.29601562 -0.21390625 10.09203125 -0.1953125 8.8515625 C-0.14846554 5.90020395 -0.08288005 2.95052964 0 0 Z " fill="#EEEEF0" transform="translate(294,328)"/>
<path d="M0 0 C0.928125 0.33 1.85625 0.66 2.8125 1 C2.9375 3.875 2.9375 3.875 2.8125 7 C2.1525 7.66 1.4925 8.32 0.8125 9 C-1.1937189 8.70640699 -3.19261766 8.36270588 -5.1875 8 C-8.18960266 7.90694951 -11.18487119 7.93994742 -14.1875 8 C-14.5175 9.32 -14.8475 10.64 -15.1875 12 C-12.03288078 14.10307948 -9.98340648 14.56641801 -6.3125 15.3125 C-1.30972937 16.53593785 1.9685967 17.42944113 4.8125 22 C5.45894299 25.5660921 5.13606756 28.80280001 4.1875 32.3125 C1.46560392 35.65300882 -1.61168373 36.76351049 -5.81640625 37.39453125 C-13.03449048 37.81681373 -13.03449048 37.81681373 -16.08984375 35.65234375 C-17.49643131 34.13838309 -18.84531499 32.57133855 -20.1875 31 C-21.5075 31 -22.8275 31 -24.1875 31 C-23.8575 29.68 -23.5275 28.36 -23.1875 27 C-22.445 27.309375 -21.7025 27.61875 -20.9375 27.9375 C-15.74047775 29.40998964 -10.56262737 29.66949055 -5.1875 30 C-5.6825 27.525 -5.6825 27.525 -6.1875 25 C-7.14011719 24.78085937 -8.09273438 24.56171875 -9.07421875 24.3359375 C-20.60724019 21.42008624 -20.60724019 21.42008624 -23.5625 18.1875 C-25.50390164 14.37936602 -25.80151144 12.22132866 -25.1875 8 C-20.84953336 -2.04581748 -9.40051227 -2.71613162 0 0 Z M-20.1875 11 C-20.5175 11.66 -20.8475 12.32 -21.1875 13 C-20.1975 13 -19.2075 13 -18.1875 13 C-18.1875 12.34 -18.1875 11.68 -18.1875 11 C-18.8475 11 -19.5075 11 -20.1875 11 Z M-3.1875 23 C-2.54770151 25.03241727 -2.54770151 25.03241727 -1.1875 27 C1.36769921 27.81171228 1.36769921 27.81171228 3.8125 28 C3.8125 26.35 3.8125 24.7 3.8125 23 C0.67900268 21.95550089 -0.17718256 22.06576355 -3.1875 23 Z " fill="#EBEBED" transform="translate(361.1875,328)"/>
<path d="M0 0 C3.3 0 6.6 0 10 0 C10.66 1.32 11.32 2.64 12 4 C12.55719727 3.51104248 13.11439453 3.02208496 13.68847656 2.51831055 C16.40451194 0.73429871 17.77103038 0.64825056 20.984375 0.70703125 C21.91894531 0.71669922 22.85351562 0.72636719 23.81640625 0.73632812 C24.78449219 0.76146484 25.75257813 0.78660156 26.75 0.8125 C28.22533203 0.83280273 28.22533203 0.83280273 29.73046875 0.85351562 C32.15420415 0.88881274 34.57682145 0.93811946 37 1 C37 1.66 37 2.32 37 3 C35.68 3 34.36 3 33 3 C33 6.3 33 9.6 33 13 C32.01 13 31.02 13 30 13 C30 12.34 30 11.68 30 11 C29.01 11.33 28.02 11.66 27 12 C23.15649138 13.28116954 18.99081785 13.76872311 15 13 C12.5 10.5 12.5 10.5 11 8 C10.67 9.98 10.34 11.96 10 14 C5.38 14.66 0.76 15.32 -4 16 C-4 15.34 -4 14.68 -4 14 C-5.32 13.67 -6.64 13.34 -8 13 C-8 12.34 -8 11.68 -8 11 C-8.66 11 -9.32 11 -10 11 C-11.625 8.5 -11.625 8.5 -13 6 C-13.33 8.31 -13.66 10.62 -14 13 C-14.66 13 -15.32 13 -16 13 C-16 9.04 -16 5.08 -16 1 C-15.01 1 -14.02 1 -13 1 C-11.61328125 2.53125 -11.61328125 2.53125 -10.3125 4.5 C-9.87550781 5.1496875 -9.43851562 5.799375 -8.98828125 6.46875 C-8.66214844 6.9740625 -8.33601563 7.479375 -8 8 C-7.67 5.69 -7.34 3.38 -7 1 C-4 2 -4 2 -3 4 C-2.34 4 -1.68 4 -1 4 C-0.67 2.68 -0.34 1.36 0 0 Z " fill="#24282E" transform="translate(312,375)"/>
<path d="M0 0 C1.75 0.0625 1.75 0.0625 4 1 C9.23942285 7.54927856 8.46203837 14.35965378 8.25 22.4375 C8.23195312 23.74138672 8.21390625 25.04527344 8.1953125 26.38867188 C8.14835957 29.59320909 8.08269464 32.7962189 8 36 C8.66 36 9.32 36 10 36 C9.67 37.32 9.34 38.64 9 40 C10.32 40 11.64 40 13 40 C13.33 39.34 13.66 38.68 14 38 C13.34 37.67 12.68 37.34 12 37 C13.0725 36.5875 14.145 36.175 15.25 35.75 C18.54509777 34.3587365 20.55176356 32.62958728 23 30 C23.66 30 24.32 30 25 30 C25.226875 29.4225 25.45375 28.845 25.6875 28.25 C27.47049844 25.19343124 28.90901364 23.77567301 32 22 C34.26258059 22.00878672 36.35582568 22.33037357 38.5859375 22.70703125 C41.85326414 23.10355147 44.82045722 22.66630782 48.0546875 22.15625 C50 22 50 22 53 23 C48.55774922 25.04343536 44.84111894 26.19314684 40 27 C39.67 27.66 39.34 28.32 39 29 C41.97 28.67 44.94 28.34 48 28 C48 28.66 48 29.32 48 30 C49.65 30.33 51.3 30.66 53 31 C53 31.66 53 32.32 53 33 C68.345 32.505 68.345 32.505 84 32 C79.19224278 35.20517148 73.64629946 34.33305218 68.0234375 34.31567383 C65.90310924 34.31254153 63.78421544 34.33587641 61.6640625 34.36132812 C54.91633238 34.39068166 49.07213843 34.09990486 42.75463867 31.60083008 C38.25513145 30.06009162 34.09025489 32.72540312 30.0625 34.625 C28.93199219 35.15609375 27.80148438 35.6871875 26.63671875 36.234375 C24.1229575 37.44295359 21.62977632 38.68699763 19.14453125 39.953125 C18.51474365 40.2732959 17.88495605 40.5934668 17.23608398 40.92333984 C15.45321188 41.83500657 13.67569008 42.75711369 11.8984375 43.6796875 C9 45 9 45 6 45 C6.0314209 43.95134766 6.0628418 42.90269531 6.09521484 41.82226562 C6.20448248 37.90135887 6.27293551 33.98058428 6.32958984 30.05859375 C6.35961317 28.36695668 6.40044638 26.67547333 6.45263672 24.984375 C7.18246331 13.83692799 7.18246331 13.83692799 2.9765625 3.90625 C2.00525672 2.91656435 1.01976789 1.93967338 0 1 C0 0.67 0 0.34 0 0 Z " fill="#7D52DB" transform="translate(185,252)"/>
<path d="M0 0 C31.60840246 -1.04143662 31.60840246 -1.04143662 45 5 C45.61359375 5.2676416 46.2271875 5.5352832 46.859375 5.81103516 C54.67195598 9.25526959 61.53023399 13.42045373 68 19 C68.68578125 19.54269531 69.3715625 20.08539063 70.078125 20.64453125 C75.28817037 24.89012166 80.09430234 29.87341035 83 36 C82.68359375 38.8046875 82.68359375 38.8046875 82 41 C80.515 40.01 80.515 40.01 79 39 C79 38.34 79 37.68 79 37 C78.34 37 77.68 37 77 37 C77 36.34 77 35.68 77 35 C76.34 35 75.68 35 75 35 C75 34.01 75 33.02 75 32 C73.02 31.67 71.04 31.34 69 31 C69 30.01 69 29.02 69 28 C66.69 27.34 64.38 26.68 62 26 C62 25.34 62 24.68 62 24 C61.4225 23.731875 60.845 23.46375 60.25 23.1875 C58 22 58 22 56.1875 20.5 C53.30079553 18.52054551 50.37233898 17.84308475 47 17 C48.3125 15.5 48.3125 15.5 50 14 C50.99 14 51.98 14 53 14 C52.34 13.67 51.68 13.34 51 13 C51 11.68 51 10.36 51 9 C50.360625 8.87625 49.72125 8.7525 49.0625 8.625 C45.02988724 7.8020178 41.01576093 6.90114025 37 6 C37 5.34 37 4.68 37 4 C35.82630859 3.90912109 35.82630859 3.90912109 34.62890625 3.81640625 C33.11103516 3.69072266 33.11103516 3.69072266 31.5625 3.5625 C30.04849609 3.44068359 30.04849609 3.44068359 28.50390625 3.31640625 C26 3 26 3 25 2 C23.14825294 1.84213692 21.2909089 1.74892644 19.43359375 1.68359375 C17.7465332 1.62075195 17.7465332 1.62075195 16.02539062 1.55664062 C14.84138672 1.51732422 13.65738281 1.47800781 12.4375 1.4375 C11.24962891 1.39431641 10.06175781 1.35113281 8.83789062 1.30664062 C5.89205216 1.20016454 2.9461257 1.09815159 0 1 C0 0.67 0 0.34 0 0 Z " fill="#2AA3D9" transform="translate(237,128)"/>
<path d="M0 0 C0.33 0.66 0.66 1.32 1 2 C0.67 2.99 0.34 3.98 0 5 C-0.66 5 -1.32 5 -2 5 C-1.67 5.7425 -1.34 6.485 -1 7.25 C0 10 0 10 0 14 C0.66 14.33 1.32 14.66 2 15 C1.505 15.78375 1.01 16.5675 0.5 17.375 C-1.16537965 19.78552327 -1.16537965 19.78552327 -1 22 C-2.96147874 23.38938077 -4.96166576 24.7260411 -7 26 C-7.33 25.34 -7.66 24.68 -8 24 C-8.99 23.67 -9.98 23.34 -11 23 C-11 23.99 -11 24.98 -11 26 C-11.66 26 -12.32 26 -13 26 C-13.144375 26.804375 -13.28875 27.60875 -13.4375 28.4375 C-14 31 -14 31 -15 32 C-15.04080783 33.99958364 -15.04254356 36.00045254 -15 38 C-14.34 38 -13.68 38 -13 38 C-12.84316168 40.74467062 -12.86653652 42.68002269 -13.93359375 45.23828125 C-15.1887837 48.48890138 -15.69339707 51.55242467 -16.1875 55 C-16.36667969 56.19625 -16.54585937 57.3925 -16.73046875 58.625 C-16.98079028 61.7594609 -16.69806808 63.97330182 -16 67 C-16.4375 70.3125 -16.4375 70.3125 -17 73 C-17.33 73 -17.66 73 -18 73 C-22.95396109 53.32286656 -20.62562174 32.11868551 -11.015625 14.21484375 C-7.79681051 9.0809594 -4.05497921 4.50553246 0 0 Z " fill="#1EAEDB" transform="translate(191,154)"/>
<path d="M0 0 C2.97 0 5.94 0 9 0 C9 12.21 9 24.42 9 37 C6.03 37 3.06 37 0 37 C0 24.79 0 12.58 0 0 Z " fill="#FBFBFC" transform="translate(181,328)"/>
<path d="M0 0 C2.31 0.33 4.62 0.66 7 1 C7 1.66 7 2.32 7 3 C8.11375 3.433125 9.2275 3.86625 10.375 4.3125 C14 6 14 6 16 9 C15.9765625 11.26171875 15.9765625 11.26171875 15.625 13.6875 C15.51414062 14.49574219 15.40328125 15.30398437 15.2890625 16.13671875 C15.19367188 16.75160156 15.09828125 17.36648437 15 18 C13.515 18.495 13.515 18.495 12 19 C11.505 18.01 11.505 18.01 11 17 C9.02463255 17.34786708 9.02463255 17.34786708 7 18 C6.67 18.66 6.34 19.32 6 20 C3.78468076 21.43344186 1.52619976 22.72728142 -0.81640625 23.94140625 C-4.41922498 25.85939952 -6.61514144 27.09721679 -8 31 C-8.66 31.99 -9.32 32.98 -10 34 C-10.33 33.34 -10.66 32.68 -11 32 C-12.48280196 32.78483659 -13.9611498 33.57809334 -15.4375 34.375 C-16.26121094 34.81585938 -17.08492188 35.25671875 -17.93359375 35.7109375 C-20.13466578 36.83418559 -20.13466578 36.83418559 -21 39 C-23.5625 39.625 -23.5625 39.625 -26 40 C-26 40.66 -26 41.32 -26 42 C-26.721875 42.20625 -27.44375 42.4125 -28.1875 42.625 C-30.99349542 43.99681999 -31.71635342 44.72415508 -33.5 47.125 C-34.325 48.07375 -35.15 49.0225 -36 50 C-36.7940625 49.99871094 -37.588125 49.99742187 -38.40625 49.99609375 C-41.64323749 50.00096873 -42.57960051 50.86356898 -45 52.9375 C-48.03515697 55.38280571 -50.06376346 56.53691335 -54 57 C-54.66 57.66 -55.32 58.32 -56 59 C-56.66 57.35 -57.32 55.7 -58 54 C-56.56720703 53.94585937 -56.56720703 53.94585937 -55.10546875 53.890625 C-49.68051539 53.1018376 -45.70268984 49.83945345 -41.3125 46.75 C-39.44877702 45.47140127 -37.58417067 44.19408936 -35.71875 42.91796875 C-34.77257812 42.26618652 -33.82640625 41.6144043 -32.8515625 40.94287109 C-28.38990514 37.90298502 -23.8521559 34.9840437 -19.3125 32.0625 C-14.24829316 28.79219105 -9.21865207 25.50547594 -4.3125 22 C0.77106765 18.37660604 6.05394206 14.98201931 12 13 C11.92770662 10.61981111 11.92770662 10.61981111 11 8 C8.4959485 5.91624791 8.4959485 5.91624791 5.4375 4.25 C3.61567023 3.18243096 1.80037783 2.1033617 0 1 C0 0.67 0 0.34 0 0 Z " fill="#6667C9" transform="translate(280,197)"/>
<path d="M0 0 C1.35158203 0.15275391 1.35158203 0.15275391 2.73046875 0.30859375 C3.41753906 0.39238281 4.10460937 0.47617188 4.8125 0.5625 C4.8125 1.2225 4.8125 1.8825 4.8125 2.5625 C6.43876404 3.94482443 8.1050002 5.28187515 9.8125 6.5625 C9.4825 6.8925 9.1525 7.2225 8.8125 7.5625 C11.4525 7.5625 14.0925 7.5625 16.8125 7.5625 C17.4725 9.5425 18.1325 11.5225 18.8125 13.5625 C22.1125 14.2225 25.4125 14.8825 28.8125 15.5625 C28.1525 16.2225 27.4925 16.8825 26.8125 17.5625 C28.2665625 18.243125 28.2665625 18.243125 29.75 18.9375 C32.8125 20.5625 32.8125 20.5625 33.8125 22.5625 C34.8025 23.2225 35.7925 23.8825 36.8125 24.5625 C37.3075 25.5525 37.3075 25.5525 37.8125 26.5625 C38.39 26.665625 38.9675 26.76875 39.5625 26.875 C42.84545368 27.87812474 44.47831868 30.10861707 46.8125 32.5625 C47.8025 33.2225 48.7925 33.8825 49.8125 34.5625 C49.3175 35.5525 49.3175 35.5525 48.8125 36.5625 C39.61398035 30.7554016 30.5175581 24.79927958 21.42822266 18.82373047 C17.79089927 16.43321911 14.15064381 14.0473196 10.50537109 11.66894531 C8.86702027 10.59813396 7.23227278 9.52181573 5.59765625 8.4453125 C4.62699219 7.81367188 3.65632812 7.18203125 2.65625 6.53125 C1.81255859 5.97888672 0.96886719 5.42652344 0.09960938 4.85742188 C-2.03794336 3.64717639 -3.78653174 3.00732841 -6.1875 2.5625 C-5.84380371 3.53598389 -5.50010742 4.50946777 -5.14599609 5.51245117 C-3.87316913 9.13157396 -2.62232671 12.75797681 -1.37792969 16.38696289 C-0.83668534 17.95543715 -0.28952924 19.52188452 0.26367188 21.08618164 C1.05868061 23.33751483 1.83201631 25.59532492 2.6015625 27.85546875 C2.85249664 28.55149704 3.10343079 29.24752533 3.36196899 29.96464539 C4.45938674 33.25276131 4.92600231 35.16980773 3.95068359 38.54418945 C3.57508301 39.21023193 3.19948242 39.87627441 2.8125 40.5625 C2.4825 40.5625 2.1525 40.5625 1.8125 40.5625 C1.4825 37.2625 1.1525 33.9625 0.8125 30.5625 C0.1525 30.5625 -0.5075 30.5625 -1.1875 30.5625 C-2.5075 27.5925 -3.8275 24.6225 -5.1875 21.5625 C-4.5275 21.5625 -3.8675 21.5625 -3.1875 21.5625 C-3.46464844 20.80066406 -3.74179688 20.03882813 -4.02734375 19.25390625 C-6.24200314 12.94094478 -7.74235933 7.23961 -8.1875 0.5625 C-4.98734144 -0.50421952 -3.30205706 -0.38595472 0 0 Z " fill="#4E90CC" transform="translate(230.1875,160.4375)"/>
<path d="M0 0 C0.66 0.33 1.32 0.66 2 1 C2 1.99 2 2.98 2 4 C1.01 4.495 1.01 4.495 0 5 C0.33 5.99 0.66 6.98 1 8 C1.99 7.67 2.98 7.34 4 7 C4.35412344 5.67203709 4.68521554 4.33783393 5 3 C6.125 1.25 6.125 1.25 8 0 C11.5 -0.4375 11.5 -0.4375 15 0 C17.43105596 2.11737132 17.92405692 3.37726673 18.3125 6.5625 C18 9 18 9 16 12 C11.02091425 13.17154959 6.99981903 12.77583399 2 12 C-0.36558029 12 -2.71871751 12.05846461 -5.08203125 12.16015625 C-7 12 -7 12 -9 10 C-9.55021834 3.94759825 -9.55021834 3.94759825 -7.875 1.0625 C-5.1769493 -0.46639539 -3.04470288 -0.25912365 0 0 Z " fill="#9A9DA4" transform="translate(258,376)"/>
<path d="M0 0 C4.59037956 1.14759489 5.33669182 2.29039218 8 6 C8.33 4.02 8.66 2.04 9 0 C13.95 0 18.9 0 24 0 C24.33 0.66 24.66 1.32 25 2 C23.02 2.33 21.04 2.66 19 3 C19.99 3.66 20.98 4.32 22 5 C22.99 5.66 23.98 6.32 25 7 C24.67 8.65 24.34 10.3 24 12 C21.36 12 18.72 12 16 12 C15.67 13.32 15.34 14.64 15 16 C9.31642687 13.75300597 7.20156421 10.99067362 4 6 C3.67 7.98 3.34 9.96 3 12 C2.01 12 1.02 12 0 12 C0 8.04 0 4.08 0 0 Z " fill="#14181D" transform="translate(159,376)"/>
<path d="M0 0 C1.40668945 0.01450195 1.40668945 0.01450195 2.84179688 0.02929688 C3.81826172 0.05443359 4.79472656 0.07957031 5.80078125 0.10546875 C6.78884766 0.11900391 7.77691406 0.13253906 8.79492188 0.14648438 C11.23492356 0.18184672 13.67382844 0.23119842 16.11328125 0.29296875 C16.11328125 0.95296875 16.11328125 1.61296875 16.11328125 2.29296875 C14.79328125 2.29296875 13.47328125 2.29296875 12.11328125 2.29296875 C12.11328125 5.59296875 12.11328125 8.89296875 12.11328125 12.29296875 C11.12328125 12.29296875 10.13328125 12.29296875 9.11328125 12.29296875 C9.11328125 11.63296875 9.11328125 10.97296875 9.11328125 10.29296875 C8.12328125 10.62296875 7.13328125 10.95296875 6.11328125 11.29296875 C2.10822826 12.62798641 -1.70634713 12.4952448 -5.88671875 12.29296875 C-7.88671875 10.29296875 -7.88671875 10.29296875 -8.19921875 6.85546875 C-7.88671875 3.29296875 -7.88671875 3.29296875 -6.67260742 1.58862305 C-4.31980579 -0.11832409 -2.8882244 -0.05251317 0 0 Z " fill="#1E2228" transform="translate(332.88671875,375.70703125)"/>
<path d="M0 0 C0.33 0 0.66 0 1 0 C2.45006436 15.49957685 -4.56606943 30.03198606 -14 42 C-16.30859375 43.953125 -16.30859375 43.953125 -18 45 C-17.46908026 42.61086117 -16.8532284 40.70645681 -15.75 38.5 C-15.5025 37.675 -15.255 36.85 -15 36 C-16.39875214 33.84311238 -16.39875214 33.84311238 -18 32 C-17.37351562 31.40832031 -16.74703125 30.81664062 -16.1015625 30.20703125 C-15.28429687 29.41683594 -14.46703125 28.62664062 -13.625 27.8125 C-12.40683594 26.64654297 -12.40683594 26.64654297 -11.1640625 25.45703125 C-8.98637891 22.9845349 -8.04774383 21.08728401 -7 18 C-4.375 13.1875 -4.375 13.1875 -2 12 C-1.30772968 9.19019327 -1.30772968 9.19019327 -0.875 5.9375 C-0.70742188 4.83277344 -0.53984375 3.72804687 -0.3671875 2.58984375 C-0.24601562 1.73519531 -0.12484375 0.88054687 0 0 Z " fill="#8646DC" transform="translate(329,215)"/>
<path d="M0 0 C-0.5775 1.093125 -1.155 2.18625 -1.75 3.3125 C-10.24762864 20.42829102 -12.21026387 39.20069475 -9 58 C-9.99 57.67 -10.98 57.34 -12 57 C-14.39755352 41.75840979 -14.39755352 41.75840979 -14 35 C-13.505 34.505 -13.505 34.505 -13 34 C-12.71390984 30.70315145 -12.55109853 27.40618875 -12.37890625 24.1015625 C-12 21 -12 21 -10 18 C-9.60612212 15.67612053 -9.26513915 13.34206251 -9 11 C-8.34 11 -7.68 11 -7 11 C-7 9.35 -7 7.7 -7 6 C-7.99 6 -8.98 6 -10 6 C-10 4.35 -10 2.7 -10 1 C-8.71073008 0.63720544 -7.41846728 0.28503302 -6.125 -0.0625 C-5.40570313 -0.25972656 -4.68640625 -0.45695313 -3.9453125 -0.66015625 C-2 -1 -2 -1 0 0 Z M-16 45 C-14 46 -14 46 -14 46 Z M-18 46 C-17.34 46.33 -16.68 46.66 -16 47 C-17.65 47.33 -19.3 47.66 -21 48 C-20.01 47.34 -19.02 46.68 -18 46 Z " fill="#101F2E" transform="translate(182,167)"/>
<path d="M0 0 C1.75 0.0625 1.75 0.0625 4 1 C9.23942285 7.54927856 8.46203837 14.35965378 8.25 22.4375 C8.23195312 23.74138672 8.21390625 25.04527344 8.1953125 26.38867188 C8.14835957 29.59320909 8.08269464 32.7962189 8 36 C8.66 36 9.32 36 10 36 C9.67 37.32 9.34 38.64 9 40 C10.32 40 11.64 40 13 40 C13.33 39.34 13.66 38.68 14 38 C13.34 37.67 12.68 37.34 12 37 C13.0725 36.566875 14.145 36.13375 15.25 35.6875 C18.16272646 34.44678487 20.56036166 33.04929621 23 31 C23 31.99 23 32.98 23 34 C24.32 34.66 25.64 35.32 27 36 C24.44113496 37.32002556 21.87832932 38.63113782 19.3125 39.9375 C18.2306543 40.49727539 18.2306543 40.49727539 17.12695312 41.06835938 C16.42119141 41.42607422 15.71542969 41.78378906 14.98828125 42.15234375 C14.34415283 42.48226318 13.70002441 42.81218262 13.03637695 43.15209961 C10.7179069 44.11745706 8.47029549 44.57796774 6 45 C6.0314209 43.95134766 6.0628418 42.90269531 6.09521484 41.82226562 C6.20448248 37.90135887 6.27293551 33.98058428 6.32958984 30.05859375 C6.35961317 28.36695668 6.40044638 26.67547333 6.45263672 24.984375 C7.18246331 13.83692799 7.18246331 13.83692799 2.9765625 3.90625 C2.00525672 2.91656435 1.01976789 1.93967338 0 1 C0 0.67 0 0.34 0 0 Z " fill="#7650D5" transform="translate(185,252)"/>
<path d="M0 0 C0.66 0.99 1.32 1.98 2 3 C1.36474424 4.67889021 0.69313908 6.34416775 0 8 C-0.16757757 11.20870233 -0.16757757 11.20870233 0 14 C0.66 14 1.32 14 2 14 C2.15683832 16.74467062 2.13346348 18.68002269 1.06640625 21.23828125 C-0.1887837 24.48890138 -0.69339707 27.55242467 -1.1875 31 C-1.36667969 32.19625 -1.54585937 33.3925 -1.73046875 34.625 C-1.98079028 37.7594609 -1.69806808 39.97330182 -1 43 C-1.4375 46.3125 -1.4375 46.3125 -2 49 C-2.33 49 -2.66 49 -3 49 C-4.61562316 42.5827448 -5.38559126 36.67393895 -5.375 30.0625 C-5.37556396 29.16241211 -5.37612793 28.26232422 -5.37670898 27.33496094 C-5.01859829 5.01859829 -5.01859829 5.01859829 0 0 Z " fill="#299FDA" transform="translate(176,178)"/>
<path d="M0 0 C0.66 0.33 1.32 0.66 2 1 C2 1.99 2 2.98 2 4 C1.01 4.495 1.01 4.495 0 5 C0.33 5.99 0.66 6.98 1 8 C1.99 7.67 2.98 7.34 4 7 C4.33 6.01 4.66 5.02 5 4 C5.66 6.31 6.32 8.62 7 11 C2.45352102 12.1732849 -2.33027294 12.54128467 -7 12 C-9 10 -9 10 -9.3125 6.5625 C-9 3 -9 3 -7.875 1.0625 C-5.1769493 -0.46639539 -3.04470288 -0.25912365 0 0 Z " fill="#1E2229" transform="translate(258,376)"/>
<path d="M0 0 C6.99836973 4.57872062 14.86927438 10.81699825 16.72265625 19.3125 C16.81417969 20.199375 16.90570313 21.08625 17 22 C16.01 22 15.02 22 14 22 C13.67 21.01 13.34 20.02 13 19 C12.34 19 11.68 19 11 19 C11 18.34 11 17.68 11 17 C10.34 17 9.68 17 9 17 C9 16.01 9 15.02 9 14 C6.03 13.505 6.03 13.505 3 13 C3 12.01 3 11.02 3 10 C0.69 9.34 -1.62 8.68 -4 8 C-4 7.34 -4 6.68 -4 6 C-4.66 5.67 -5.32 5.34 -6 5 C-5.34 4.67 -4.68 4.34 -4 4 C-1.64018187 4.93578995 0.69631264 5.93347808 3 7 C2.67 6.01 2.34 5.02 2 4 C1.34 3.67 0.68 3.34 0 3 C0 2.01 0 1.02 0 0 Z " fill="#3291D8" transform="translate(303,146)"/>
<path d="M0 0 C0.99 0.33 1.98 0.66 3 1 C5.0181357 7.05440709 4.02848709 11.72822995 1.5 17.4375 C-1.51063944 24.48120763 -3.97882554 31.66378169 -6.375 38.9375 C-6.91157227 40.56546509 -6.91157227 40.56546509 -7.45898438 42.22631836 C-8.30956384 44.81639914 -9.15677479 47.4075173 -10 50 C-10.33 50 -10.66 50 -11 50 C-11.37851209 44.06997733 -10.10575375 39.52760359 -8 34 C-7.34 34 -6.68 34 -6 34 C-6 31.36 -6 28.72 -6 26 C-5.01 25.67 -4.02 25.34 -3 25 C-3.10699219 24.38511719 -3.21398437 23.77023438 -3.32421875 23.13671875 C-3.44410156 22.32847656 -3.56398437 21.52023438 -3.6875 20.6875 C-3.81511719 19.88699219 -3.94273437 19.08648437 -4.07421875 18.26171875 C-4 16 -4 16 -2.53125 14.40625 C-2.0259375 13.9421875 -1.520625 13.478125 -1 13 C-0.74951364 9.87450983 -0.74951364 9.87450983 -1 7 C-0.34 7 0.32 7 1 7 C0.67 4.69 0.34 2.38 0 0 Z " fill="#4C77C6" transform="translate(234,200)"/>
<path d="M0 0 C3.46489668 3.87738438 5.39133698 7.84421465 7.125 12.6875 C7.38361816 13.40518555 7.64223633 14.12287109 7.90869141 14.86230469 C12.61936186 28.22578057 13.85919158 43.00139804 11 57 C10.67 57 10.34 57 10 57 C9.80398392 55.25093341 9.61852597 53.50068154 9.4375 51.75 C9.33308594 50.77546875 9.22867187 49.8009375 9.12109375 48.796875 C9.00936164 46.2162237 9.29913527 44.45031003 10 42 C9.65213292 40.02463255 9.65213292 40.02463255 9 38 C7.8409842 33.3639368 6.80664282 27.38671435 9 23 C8.34 23 7.68 23 7 23 C6.89042969 22.39671875 6.78085937 21.7934375 6.66796875 21.171875 C5.77036538 16.64737018 4.97965172 13.6004125 2 10 C0.54964062 6.3359342 0 3.98443191 0 0 Z " fill="#4668AF" transform="translate(320,165)"/>
<path d="M0 0 C7.6438582 1.62901896 7.6438582 1.62901896 9.5 3.5625 C12.09907306 6.05327835 15.51111423 5.71402576 19 6 C18.34 6.66 17.68 7.32 17 8 C18.4540625 8.680625 18.4540625 8.680625 19.9375 9.375 C23 11 23 11 24 13 C24.99 13.66 25.98 14.32 27 15 C27.33 15.66 27.66 16.32 28 17 C28.5775 17.103125 29.155 17.20625 29.75 17.3125 C33.03295368 18.31562474 34.66581868 20.54611707 37 23 C37.99 23.66 38.98 24.32 40 25 C39.67 25.66 39.34 26.32 39 27 C31.16474545 22.06064431 23.40361864 17.01699651 15.68945312 11.89135742 C14.46326077 11.07780057 13.23568258 10.26632918 12.00683594 9.45678711 C10.20730106 8.27120285 8.41182293 7.07970231 6.6171875 5.88671875 C5.56128418 5.18764404 4.50538086 4.48856934 3.41748047 3.76831055 C1 2 1 2 0 0 Z " fill="#4983CA" transform="translate(240,170)"/>
<path d="M0 0 C2.125 0.375 2.125 0.375 4 1 C4.33 3.31 4.66 5.62 5 8 C-1.66695037 9.9202046 -8.59511969 9.69679171 -15 7 C-15 5.68 -15 4.36 -15 3 C-13.62714844 2.92652344 -13.62714844 2.92652344 -12.2265625 2.8515625 C-11.03804688 2.77679688 -9.84953125 2.70203125 -8.625 2.625 C-7.44164062 2.55539062 -6.25828125 2.48578125 -5.0390625 2.4140625 C-1.89437681 2.29782654 -1.89437681 2.29782654 0 0 Z " fill="#F5F5F6" transform="translate(277,356)"/>
<path d="M0 0 C1.93719378 -0.05406122 3.87481921 -0.09282025 5.8125 -0.125 C6.89144531 -0.14820313 7.97039062 -0.17140625 9.08203125 -0.1953125 C12 0 12 0 15 2 C14.125 6.875 14.125 6.875 13 8 C10.81360547 8.07258946 8.62499611 8.08373783 6.4375 8.0625 C4.64119141 8.04896484 4.64119141 8.04896484 2.80859375 8.03515625 C1.88175781 8.02355469 0.95492188 8.01195312 0 8 C0 5.36 0 2.72 0 0 Z " fill="#1C1F27" transform="translate(263,350)"/>
<path d="M0 0 C4.83372821 0.01638552 9.41342223 0.3215333 14.1796875 1.1328125 C14.1796875 1.7928125 14.1796875 2.4528125 14.1796875 3.1328125 C13.1796875 4.1328125 12.1796875 5.1328125 11.1796875 6.1328125 C10.8496875 7.1228125 10.5196875 8.1128125 10.1796875 9.1328125 C8.5953558 9.04513002 7.01215183 8.93693921 5.4296875 8.8203125 C4.10710937 8.73330078 4.10710937 8.73330078 2.7578125 8.64453125 C-0.14335024 8.0686944 -1.61256857 7.05685102 -3.8203125 5.1328125 C-2.70586993 0.19742399 -2.70586993 0.19742399 0 0 Z " fill="#1D2027" transform="translate(348.8203125,334.8671875)"/>
<path d="M0 0 C0.763125 0.309375 1.52625 0.61875 2.3125 0.9375 C6.47568571 2.13706198 10.29592499 2.33129829 14.609375 2.4609375 C17 3 17 3 18.328125 5.0390625 C18.66070312 6.00972656 18.66070312 6.00972656 19 7 C19.66 7 20.32 7 21 7 C20.67 7.99 20.34 8.98 20 10 C10.33824134 10.92835403 10.33824134 10.92835403 7.07421875 8.6640625 C5.6861428 7.13610293 4.34074635 5.56965426 3 4 C1.68 4 0.36 4 -1 4 C-0.67 2.68 -0.34 1.36 0 0 Z " fill="#F4F4F3" transform="translate(338,355)"/>
<path d="M0 0 C1.60379341 -0.05416188 3.20811406 -0.09286638 4.8125 -0.125 C5.70582031 -0.14820313 6.59914063 -0.17140625 7.51953125 -0.1953125 C10 0 10 0 13 2 C12.125 6.875 12.125 6.875 11 8 C9.14712498 8.07226502 7.29166122 8.0838122 5.4375 8.0625 C4.42558594 8.05347656 3.41367187 8.04445313 2.37109375 8.03515625 C1.58863281 8.02355469 0.80617188 8.01195312 0 8 C0 5.36 0 2.72 0 0 Z " fill="#1D1F26" transform="translate(263,335)"/>
<path d="M0 0 C4.59037956 1.14759489 5.33669182 2.29039218 8 6 C8.33 4.02 8.66 2.04 9 0 C9.99 0 10.98 0 12 0 C12 3.96 12 7.92 12 12 C7.40962044 10.85240511 6.66330818 9.70960782 4 6 C3.67 7.98 3.34 9.96 3 12 C2.01 12 1.02 12 0 12 C0 8.04 0 4.08 0 0 Z " fill="#8D9195" transform="translate(159,376)"/>
<path d="M0 0 C-0.969375 0.45375 -1.93875 0.9075 -2.9375 1.375 C-6.07079582 2.65786221 -6.07079582 2.65786221 -7 5 C-7.60328125 4.97679687 -8.2065625 4.95359375 -8.828125 4.9296875 C-9.62734375 4.91164063 -10.4265625 4.89359375 -11.25 4.875 C-12.43335938 4.84019531 -12.43335938 4.84019531 -13.640625 4.8046875 C-15.99257164 4.83232572 -15.99257164 4.83232572 -17.75390625 6 C-20.71170927 7.31686534 -23.06533009 7.22579877 -26.296875 7.1953125 C-28.10478516 7.18564453 -28.10478516 7.18564453 -29.94921875 7.17578125 C-31.83060547 7.15064453 -31.83060547 7.15064453 -33.75 7.125 C-35.01972656 7.11597656 -36.28945312 7.10695313 -37.59765625 7.09765625 C-40.73196093 7.07409005 -43.86588541 7.04118832 -47 7 C-47.33 6.34 -47.66 5.68 -48 5 C-47.2251123 4.9906543 -46.45022461 4.98130859 -45.65185547 4.97167969 C-33.61845095 4.78921986 -10.0426038 -3.01278114 0 0 Z " fill="#291649" transform="translate(286,281)"/>
<path d="M0 0 C31.26562395 -1.03014272 31.26562395 -1.03014272 45 5 C46.46179688 5.60521484 46.46179688 5.60521484 47.953125 6.22265625 C49.99233399 7.09526255 52.00203596 8.03669591 54 9 C50.57176137 10.14274621 49.88717985 9.83857544 46.625 8.625 C43.42613873 7.48217681 40.36530577 6.54279125 37 6 C37 5.34 37 4.68 37 4 C35.82630859 3.90912109 35.82630859 3.90912109 34.62890625 3.81640625 C33.11103516 3.69072266 33.11103516 3.69072266 31.5625 3.5625 C30.04849609 3.44068359 30.04849609 3.44068359 28.50390625 3.31640625 C26 3 26 3 25 2 C23.14825294 1.84213692 21.2909089 1.74892644 19.43359375 1.68359375 C17.7465332 1.62075195 17.7465332 1.62075195 16.02539062 1.55664062 C14.84138672 1.51732422 13.65738281 1.47800781 12.4375 1.4375 C11.24962891 1.39431641 10.06175781 1.35113281 8.83789062 1.30664062 C5.89205216 1.20016454 2.9461257 1.09815159 0 1 C0 0.67 0 0.34 0 0 Z " fill="#2AA4C3" transform="translate(237,128)"/>
<path d="M0 0 C0.99 0 1.98 0 3 0 C6 3.33333333 6 3.33333333 6 6 C6.66 6 7.32 6 8 6 C8 4.02 8 2.04 8 0 C8.99 0 9.98 0 11 0 C11 3.96 11 7.92 11 12 C10.01 12 9.02 12 8 12 C4 7.65714286 4 7.65714286 4 5 C3.34 5 2.68 5 2 5 C2 7.31 2 9.62 2 12 C1.34 12 0.68 12 0 12 C0 8.04 0 4.08 0 0 Z " fill="#969AA0" transform="translate(280,376)"/>
<path d="M0 0 C4.59037956 1.14759489 5.33669182 2.29039218 8 6 C8.33 4.02 8.66 2.04 9 0 C9.66 0 10.32 0 11 0 C11 3.96 11 7.92 11 12 C10.01 12 9.02 12 8 12 C5.8125 9 5.8125 9 4 6 C3.67 7.98 3.34 9.96 3 12 C2.01 12 1.02 12 0 12 C0 8.04 0 4.08 0 0 Z " fill="#91949B" transform="translate(214,376)"/>
<path d="M0 0 C3.96 0 7.92 0 12 0 C12 0.33 12 0.66 12 1 C8.37 1 4.74 1 1 1 C1 3.64 1 6.28 1 9 C4.96 9 8.92 9 13 9 C13 9.33 13 9.66 13 10 C6.565 10.495 6.565 10.495 0 11 C0.33 11.99 0.66 12.98 1 14 C2.65 14.33 4.3 14.66 6 15 C6 15.33 6 15.66 6 16 C2.37 16 -1.26 16 -5 16 C-4.67 14.68 -4.34 13.36 -4 12 C-4 10.96875 -4 9.9375 -4 8.875 C-4 6 -4 6 -3 4 C-2.01 4 -1.02 4 0 4 C0 2.68 0 1.36 0 0 Z M-2 6 C-1 10 -1 10 -1 10 Z " fill="#BCB7BD" transform="translate(262,349)"/>
<path d="M0 0 C0.99 0 1.98 0 3 0 C4.65 3.63 6.3 7.26 8 11 C7.01 11.33 6.02 11.66 5 12 C5 11.34 5 10.68 5 10 C2.69 10 0.38 10 -2 10 C-2 10.66 -2 11.32 -2 12 C-2.66 12 -3.32 12 -4 12 C-3.45660208 7.43545749 -2.20536179 4.0271824 0 0 Z " fill="#787D82" transform="translate(203,376)"/>
<path d="M0 0 C1.75 0.0625 1.75 0.0625 4 1 C9.23942285 7.54927856 8.46203837 14.35965378 8.25 22.4375 C8.23195312 23.74138672 8.21390625 25.04527344 8.1953125 26.38867188 C8.14835957 29.59320909 8.08269464 32.7962189 8 36 C8.66 36.33 9.32 36.66 10 37 C9.01 37.495 9.01 37.495 8 38 C7.34444881 40.52733235 7.34444881 40.52733235 7 43 C8.32 43.33 9.64 43.66 11 44 C8.525 44.495 8.525 44.495 6 45 C6.0314209 43.95134766 6.0628418 42.90269531 6.09521484 41.82226562 C6.20448248 37.90135887 6.27293551 33.98058428 6.32958984 30.05859375 C6.35961317 28.36695668 6.40044638 26.67547333 6.45263672 24.984375 C7.18246331 13.83692799 7.18246331 13.83692799 2.9765625 3.90625 C2.00525672 2.91656435 1.01976789 1.93967338 0 1 C0 0.67 0 0.34 0 0 Z " fill="#605AB8" transform="translate(185,252)"/>
<path d="M0 0 C3.3 0.33 6.6 0.66 10 1 C10 1.66 10 2.32 10 3 C11.62626404 4.38232443 13.2925002 5.71937515 15 7 C14.67 7.33 14.34 7.66 14 8 C16.64 8 19.28 8 22 8 C22.33 9.32 22.66 10.64 23 12 C14.63992246 11.86294955 9.72105287 8.77084573 3 4 C2.01 3.34 1.02 2.68 0 2 C0 1.34 0 0.68 0 0 Z " fill="#3F99CF" transform="translate(225,160)"/>
<path d="M0 0 C0.99 0 1.98 0 3 0 C4.38671875 1.53125 4.38671875 1.53125 5.6875 3.5 C6.12449219 4.1496875 6.56148438 4.799375 7.01171875 5.46875 C7.33785156 5.9740625 7.66398437 6.479375 8 7 C8.33 4.69 8.66 2.38 9 0 C9.66 0 10.32 0 11 0 C11 3.96 11 7.92 11 12 C10.01 12 9.02 12 8 12 C8 11.34 8 10.68 8 10 C7.34 10 6.68 10 6 10 C4.375 7.5 4.375 7.5 3 5 C2.67 7.31 2.34 9.62 2 12 C1.34 12 0.68 12 0 12 C0 8.04 0 4.08 0 0 Z " fill="#9CA0A6" transform="translate(296,376)"/>
<path d="M0 0 C7.25476309 6.2471571 9.86709516 14.67532167 11 24 C11.13461294 27.02430395 11.09773036 29.97035887 11 33 C10.67 33 10.34 33 10 33 C9.85304688 32.15179688 9.70609375 31.30359375 9.5546875 30.4296875 C7.51869454 19.78167836 3.92465393 10.66080437 -1 1 C-0.67 0.67 -0.34 0.34 0 0 Z " fill="#0C1936" transform="translate(321,163)"/>
<path d="M0 0 C2.97 0 5.94 0 9 0 C9 0.66 9 1.32 9 2 C6.69 2 4.38 2 2 2 C2 2.99 2 3.98 2 5 C3.98 5 5.96 5 8 5 C8 5.66 8 6.32 8 7 C6.35 7 4.7 7 3 7 C3 7.99 3 8.98 3 10 C4.98 10 6.96 10 9 10 C9 10.66 9 11.32 9 12 C6.03 12 3.06 12 0 12 C0 8.04 0 4.08 0 0 Z " fill="#9CA0A5" transform="translate(312,376)"/>
<path d="M0 0 C0.33 0.66 0.66 1.32 1 2 C0.67 2.99 0.34 3.98 0 5 C-0.66 5 -1.32 5 -2 5 C-1.62875 5.763125 -1.2575 6.52625 -0.875 7.3125 C-0.58625 8.199375 -0.2975 9.08625 0 10 C-2.28110101 13.42165151 -3.24607319 13.69049065 -7 15 C-8.66851348 15.66203097 -10.33545689 16.32804876 -12 17 C-8.47461354 10.7868189 -4.82104056 5.28018728 0 0 Z " fill="#21A8CC" transform="translate(191,154)"/>
<path d="M0 0 C0 2 0 2 -2 4.1875 C-2.99030179 5.13523868 -3.99185944 6.07125953 -5 7 C-5.67417969 7.62132812 -6.34835938 8.24265625 -7.04296875 8.8828125 C-12.7298836 14 -12.7298836 14 -15 14 C-15.33 14.66 -15.66 15.32 -16 16 C-17.32 15.67 -18.64 15.34 -20 15 C-6.05194805 0 -6.05194805 0 0 0 Z " fill="#21B5D2" transform="translate(212,138)"/>
<path d="M0 0 C1.84373465 1.06553496 3.67479236 2.15303177 5.5 3.25 C6.5209375 3.85328125 7.541875 4.4565625 8.59375 5.078125 C9.3878125 5.71234375 10.181875 6.3465625 11 7 C11 8.32 11 9.64 11 11 C11.99 11.33 12.98 11.66 14 12 C14.33 12.99 14.66 13.98 15 15 C14.01 15.495 14.01 15.495 13 16 C10.5249829 14.88568235 8.32116581 13.41849022 6 12 C6 9.69 6 7.38 6 5 C3.03 4.505 3.03 4.505 0 4 C0 2.68 0 1.36 0 0 Z " fill="#2E9FDB" transform="translate(292,138)"/>
<path d="M0 0 C0.33 0 0.66 0 1 0 C1.02505615 0.70084717 1.0501123 1.40169434 1.07592773 2.1237793 C1.19226545 5.31185488 1.31482044 8.49966242 1.4375 11.6875 C1.47681641 12.79029297 1.51613281 13.89308594 1.55664062 15.02929688 C1.59853516 16.09599609 1.64042969 17.16269531 1.68359375 18.26171875 C1.72025146 19.24100342 1.75690918 20.22028809 1.79467773 21.22924805 C1.93977357 23.99650571 1.93977357 23.99650571 2.54711914 26.65161133 C3.12247482 29.6350864 2.61759766 32.04925561 2 35 C1.67 35 1.34 35 1 35 C-0.7361468 28.27500448 -1.28141431 22.17988728 -1.1875 15.25 C-1.18685547 14.33089844 -1.18621094 13.41179687 -1.18554688 12.46484375 C-1.1574638 8.15253187 -0.93895512 4.22412729 0 0 Z " fill="#368AB6" transform="translate(172,192)"/>
<path d="M0 0 C1.4540625 0.0309375 1.4540625 0.0309375 2.9375 0.0625 C3.2675 0.7225 3.5975 1.3825 3.9375 2.0625 C1.9575 2.3925 -0.0225 2.7225 -2.0625 3.0625 C-1.0725 3.7225 -0.0825 4.3825 0.9375 5.0625 C1.9275 5.7225 2.9175 6.3825 3.9375 7.0625 C3.6075 8.7125 3.2775 10.3625 2.9375 12.0625 C0.2975 12.0625 -2.3425 12.0625 -5.0625 12.0625 C-5.0625 11.4025 -5.0625 10.7425 -5.0625 10.0625 C-2.7525 10.0625 -0.4425 10.0625 1.9375 10.0625 C1.9375 9.4025 1.9375 8.7425 1.9375 8.0625 C0.761875 7.8459375 0.761875 7.8459375 -0.4375 7.625 C-3.0625 7.0625 -3.0625 7.0625 -5.0625 6.0625 C-3.98897059 0.08140756 -3.98897059 0.08140756 0 0 Z " fill="#94959A" transform="translate(180.0625,375.9375)"/>
<path d="M0 0 C3.58243646 3.38341221 6.64295527 6.64853282 9 11 C8.75 13.875 8.75 13.875 8 16 C7.01 15.34 6.02 14.68 5 14 C5 13.34 5 12.68 5 12 C4.34 12 3.68 12 3 12 C3 11.34 3 10.68 3 10 C2.34 10 1.68 10 1 10 C1 9.01 1 8.02 1 7 C0.34 6.67 -0.32 6.34 -1 6 C-0.34 6 0.32 6 1 6 C0.67 4.02 0.34 2.04 0 0 Z " fill="#377DC4" transform="translate(311,153)"/>
<path d="M0 0 C1.32 0.66 2.64 1.32 4 2 C4.33 1.34 4.66 0.68 5 0 C5 4.29 5 8.58 5 13 C3.68 13.33 2.36 13.66 1 14 C1 13.34 1 12.68 1 12 C0.01 11.67 -0.98 11.34 -2 11 C-1.34 11 -0.68 11 0 11 C0 7.37 0 3.74 0 0 Z " fill="#1E2328" transform="translate(307,377)"/>
<path d="M0 0 C-0.72703125 0.27972656 -1.4540625 0.55945313 -2.203125 0.84765625 C-9.91102441 3.92093409 -16.93696694 7.65448143 -24 12 C-24.33 11.01 -24.66 10.02 -25 9 C-23.35 8.67 -21.7 8.34 -20 8 C-19.67 7.01 -19.34 6.02 -19 5 C-18.34 5 -17.68 5 -17 5 C-16.67 4.01 -16.34 3.02 -16 2 C-13.41796875 1.015625 -13.41796875 1.015625 -10.1875 0.25 C-8.60001953 -0.14445313 -8.60001953 -0.14445313 -6.98046875 -0.546875 C-4.18266064 -0.97222984 -2.62468156 -0.94056385 0 0 Z " fill="#052636" transform="translate(228,131)"/>
<path d="M0 0 C0.7734375 0.3403125 0.7734375 0.3403125 1.5625 0.6875 C-0.125 2.25 -0.125 2.25 -2.4375 3.6875 C-5.1875 3.375 -5.1875 3.375 -7.4375 2.6875 C-7.4375 3.3475 -7.4375 4.0075 -7.4375 4.6875 C-13.33994471 8.75362857 -18.33695397 9.43069906 -25.4375 9.6875 C-22.80301216 7.05301216 -20.27197973 6.45144048 -16.75 5.25 C-12.86292322 3.91607312 -9.02952608 2.57747737 -5.3125 0.8125 C-2.4375 -0.3125 -2.4375 -0.3125 0 0 Z " fill="#3E3E43" transform="translate(178.4375,22.3125)"/>
<path d="M0 0 C0.33 0.99 0.66 1.98 1 3 C-1.31 3 -3.62 3 -6 3 C-6.38218767 4.65614657 -6.71395102 6.32457024 -7 8 C-5.03177114 9.96822886 -1.65191291 9.66248381 1 10 C0.67 10.66 0.34 11.32 0 12 C-6.0546875 12.1953125 -6.0546875 12.1953125 -8 12 C-10 10 -10 10 -10.3125 6.5625 C-10 3 -10 3 -8.9375 1.0625 C-5.98831309 -0.55479605 -3.29132441 -0.18630138 0 0 Z " fill="#9A9DA4" transform="translate(335,376)"/>
<path d="M0 0 C3.465 1.485 3.465 1.485 7 3 C6.8125 5.875 6.8125 5.875 6 9 C3.4375 10.375 3.4375 10.375 1 11 C1 10.34 1 9.68 1 9 C0.34 9 -0.32 9 -1 9 C-2.1875 7.3125 -2.1875 7.3125 -3 5 C-1.625 2.25 -1.625 2.25 0 0 Z " fill="#F5F7F6" transform="translate(358,353)"/>
<path d="M0 0 C3.96 0.33 7.92 0.66 12 1 C12 1.66 12 2.32 12 3 C27.345 2.505 27.345 2.505 43 2 C38.19224278 5.20517148 32.64629946 4.33305218 27.0234375 4.31567383 C24.90310924 4.31254153 22.78421544 4.33587641 20.6640625 4.36132812 C13.19467421 4.39468245 6.92964165 3.92464831 0 1 C0 0.67 0 0.34 0 0 Z " fill="#7B49C3" transform="translate(226,282)"/>
<path d="M0 0 C2.5625 -0.25 2.5625 -0.25 5 0 C6 1 6 1 6.125 4 C6 7 6 7 5 8 C3.00041636 8.04080783 0.99954746 8.04254356 -1 8 C-1.625 5.6875 -1.625 5.6875 -2 3 C-1.34 2.01 -0.68 1.02 0 0 Z " fill="#191D22" transform="translate(267,378)"/>
<path d="M0 0 C0.33 0 0.66 0 1 0 C1 6.93 1 13.86 1 21 C-4.625 15.375 -4.625 15.375 -7 12 C-5.68 12.33 -4.36 12.66 -3 13 C-1.32889958 10.03821227 -0.67317248 7.62928808 -0.375 4.25 C-0.26285156 3.05117188 -0.26285156 3.05117188 -0.1484375 1.828125 C-0.09945312 1.22484375 -0.05046875 0.6215625 0 0 Z " fill="#202128" transform="translate(160,328)"/>
<path d="M0 0 C1.98 0 3.96 0 6 0 C6.625 2.875 6.625 2.875 7 6 C6.34 6.66 5.68 7.32 5 8 C2.5 7.9375 2.5 7.9375 0 7 C-1.3125 4.4375 -1.3125 4.4375 -2 2 C-1.34 2 -0.68 2 0 2 C0 1.34 0 0.68 0 0 Z " fill="#1C2733" transform="translate(124,198)"/>
<path d="M0 0 C2.97 0.33 5.94 0.66 9 1 C8.67 1.99 8.34 2.98 8 4 C8.66 4 9.32 4 10 4 C8.92598892 6.91517292 8.22189824 8.77810176 6 11 C2.375 11.125 2.375 11.125 -1 11 C-1 10.67 -1 10.34 -1 10 C0.98 9.67 2.96 9.34 5 9 C5 7.68 5 6.36 5 5 C3.02 4.01 1.04 3.02 -1 2 C-0.67 1.34 -0.34 0.68 0 0 Z " fill="#262830" transform="translate(178,378)"/>
<path d="M0 0 C1.5 1.375 1.5 1.375 3 3 C3 3.66 3 4.32 3 5 C3.66 5.33 4.32 5.66 5 6 C4.67 7.65 4.34 9.3 4 11 C4.61875 11.04125 5.2375 11.0825 5.875 11.125 C8 12 8 12 9.25 14.75 C9.92118714 17.65847762 10.17433648 20.03627984 10 23 C4.45696886 16.31013483 0 8.96175731 0 0 Z " fill="#416FB9" transform="translate(174,227)"/>
<path d="M0 0 C0.33 0.99 0.66 1.98 1 3 C0.030625 2.979375 -0.93875 2.95875 -1.9375 2.9375 C-4.87465895 2.64381501 -4.87465895 2.64381501 -6 4 C-6.04063832 5.66617115 -6.042721 7.33388095 -6 9 C-3.69 9.33 -1.38 9.66 1 10 C1 10.66 1 11.32 1 12 C-5.0546875 12.1953125 -5.0546875 12.1953125 -7 12 C-9 10 -9 10 -9.3125 6.5625 C-9 3 -9 3 -7.875 1.0625 C-5.214973 -0.44484863 -2.99793795 -0.19986253 0 0 Z " fill="#9DA2A7" transform="translate(258,376)"/>
<path d="M0 0 C0.33 0 0.66 0 1 0 C1.07347656 1.28583984 1.07347656 1.28583984 1.1484375 2.59765625 C1.53252081 9.93147954 1.53252081 9.93147954 3.125 17.0625 C3.99143152 19.97123438 4.10934982 21.22662546 3 24 C2.34 23.67 1.68 23.34 1 23 C-0.57886365 15.81714499 -1.43237751 8.35041761 -1 1 C-0.67 0.67 -0.34 0.34 0 0 Z M-3 11 C-1 12 -1 12 -1 12 Z M-5 12 C-4.34 12.33 -3.68 12.66 -3 13 C-4.65 13.33 -6.3 13.66 -8 14 C-7.01 13.34 -6.02 12.68 -5 12 Z " fill="#0D1F33" transform="translate(169,201)"/>
<path d="M0 0 C1.81325551 0.11351517 3.62563357 0.24112961 5.4375 0.375 C6.95150391 0.47941406 6.95150391 0.47941406 8.49609375 0.5859375 C9.73552734 0.79089844 9.73552734 0.79089844 11 1 C11.33 1.66 11.66 2.32 12 3 C14.02463255 3.65213292 14.02463255 3.65213292 16 4 C16 4.99 16 5.98 16 7 C17.32 7.66 18.64 8.32 20 9 C20 9.66 20 10.32 20 11 C16.74870192 9.88236628 13.99693956 8.41752711 11.125 6.5625 C7.53279662 4.25420201 3.96656288 2.57009781 0 1 C0 0.67 0 0.34 0 0 Z " fill="#092B3F" transform="translate(282,133)"/>
<path d="M0 0 C0.66 0.33 1.32 0.66 2 1 C1.86722656 1.59683594 1.73445312 2.19367188 1.59765625 2.80859375 C-0.17194611 11.50160389 -0.60623875 20.16109612 -1 29 C-1.33 29 -1.66 29 -2 29 C-2.05794812 24.72922344 -2.09357874 20.45854764 -2.125 16.1875 C-2.14175781 14.97255859 -2.15851563 13.75761719 -2.17578125 12.50585938 C-2.18222656 11.34248047 -2.18867188 10.17910156 -2.1953125 8.98046875 C-2.20578613 7.90692139 -2.21625977 6.83337402 -2.22705078 5.72729492 C-2 3 -2 3 0 0 Z " fill="#042C41" transform="translate(172,185)"/>
<path d="M0 0 C0.99 0 1.98 0 3 0 C3 3.96 3 7.92 3 12 C1.68 11.67 0.36 11.34 -1 11 C-1.33 9.68 -1.66 8.36 -2 7 C-1.67 7 -1.34 7 -1 7 C-0.67 4.69 -0.34 2.38 0 0 Z " fill="#979BA0" transform="translate(168,376)"/>
<path d="M0 0 C3.3 0 6.6 0 10 0 C10 0.66 10 1.32 10 2 C8.68 2 7.36 2 6 2 C6 5.3 6 8.6 6 12 C5.34 12 4.68 12 4 12 C4 8.7 4 5.4 4 2 C2.68 2 1.36 2 0 2 C0 1.34 0 0.68 0 0 Z " fill="#A2A7AD" transform="translate(187,376)"/>
<path d="M0 0 C3.3 0 6.6 0 10 0 C10 0.66 10 1.32 10 2 C8.68 2 7.36 2 6 2 C6 5.3 6 8.6 6 12 C5.34 12 4.68 12 4 12 C4 8.7 4 5.4 4 2 C2.68 2 1.36 2 0 2 C0 1.34 0 0.68 0 0 Z " fill="#9CA0A6" transform="translate(339,376)"/>
<path d="M0 0 C3.3 0 6.6 0 10 0 C10 0.66 10 1.32 10 2 C8.68 2 7.36 2 6 2 C6 5.3 6 8.6 6 12 C5.34 12 4.68 12 4 12 C4 8.7 4 5.4 4 2 C2.68 2 1.36 2 0 2 C0 1.34 0 0.68 0 0 Z " fill="#9CA1A8" transform="translate(229,376)"/>
<path d="M0 0 C0.33 0.66 0.66 1.32 1 2 C2.89533342 2.46523063 2.89533342 2.46523063 5.0625 2.625 C6.361875 2.74875 7.66125 2.8725 9 3 C5.77208445 5.1519437 4.71599191 5.20086443 1 5 C1.99 5.99 2.98 6.98 4 8 C0.32579134 7.69381595 -0.78135513 7.24228216 -3.3125 4.4375 C-3.869375 3.633125 -4.42625 2.82875 -5 2 C-4.360625 1.855625 -3.72125 1.71125 -3.0625 1.5625 C-1.02454854 1.18992819 -1.02454854 1.18992819 0 0 Z " fill="#EDE9EC" transform="translate(305,355)"/>
<path d="M0 0 C0.51046875 0.23589844 1.0209375 0.47179687 1.546875 0.71484375 C0.94359375 1.029375 0.3403125 1.34390625 -0.28125 1.66796875 C-4.54667141 3.95203312 -8.26815296 5.97596352 -11.453125 9.71484375 C-13.453125 8.71484375 -13.453125 8.71484375 -14.453125 7.71484375 C-15.113125 7.38484375 -15.773125 7.05484375 -16.453125 6.71484375 C-14.21005472 5.51234217 -11.9602459 4.32792755 -9.703125 3.15234375 C-8.75179687 2.63897461 -8.75179687 2.63897461 -7.78125 2.11523438 C-3.00217062 -0.34897843 -3.00217062 -0.34897843 0 0 Z " fill="#2A1D51" transform="translate(224.453125,282.28515625)"/>
<path d="M0 0 C0.99 0.33 1.98 0.66 3 1 C2.67 3.31 2.34 5.62 2 8 C-1.3 8 -4.6 8 -8 8 C-8 7.67 -8 7.34 -8 7 C-5.03 7 -2.06 7 1 7 C1 6.34 1 5.68 1 5 C-0.98 5 -2.96 5 -5 5 C-5 4.01 -5 3.02 -5 2 C-3.35 2 -1.7 2 0 2 C0 1.34 0 0.68 0 0 Z " fill="#2E3036" transform="translate(320,381)"/>
<path d="M0 0 C0.66 0.33 1.32 0.66 2 1 C1.67 1.66 1.34 2.32 1 3 C2.32 3 3.64 3 5 3 C5.33 2.34 5.66 1.68 6 1 C8.06640625 0.5859375 8.06640625 0.5859375 10.5625 0.375 C11.38878906 0.30023438 12.21507812 0.22546875 13.06640625 0.1484375 C14.02353516 0.07496094 14.02353516 0.07496094 15 0 C10.92476951 3.42319361 6.42937249 5.84493367 1.0625 6.1875 C0.0415625 6.0946875 0.0415625 6.0946875 -1 6 C-1.042721 4.33388095 -1.04063832 2.66617115 -1 1 C-0.67 0.67 -0.34 0.34 0 0 Z " fill="#6E53C3" transform="translate(193,289)"/>
<path d="M0 0 C0.33 1.98 0.66 3.96 1 6 C-0.8125 6.625 -0.8125 6.625 -3 7 C-3.99 6.34 -4.98 5.68 -6 5 C-6 3.68 -6 2.36 -6 1 C-4 0 -4 0 0 0 Z " fill="#19212D" transform="translate(155,273)"/>
<path d="M0 0 C0.33 0 0.66 0 1 0 C1.8957921 9.57502227 -0.67247603 17.1939455 -4 26 C-4.33 26 -4.66 26 -5 26 C-5.25 20.375 -5.25 20.375 -3 17 C-2.45994087 15.07750553 -2.45994087 15.07750553 -2.1484375 12.98828125 C-2.01953125 12.23095703 -1.890625 11.47363281 -1.7578125 10.69335938 C-1.56832031 9.51483398 -1.56832031 9.51483398 -1.375 8.3125 C-1.17390625 7.11657227 -1.17390625 7.11657227 -0.96875 5.89648438 C-0.6393854 3.9320598 -0.31883687 1.96616073 0 0 Z " fill="#704AC5" transform="translate(329,215)"/>
<path d="M0 0 C0.66 0 1.32 0 2 0 C2 0.66 2 1.32 2 2 C3.65 2 5.3 2 7 2 C7 1.34 7 0.68 7 0 C7.66 0 8.32 0 9 0 C9.66 1.98 10.32 3.96 11 6 C10.01 6 9.02 6 8 6 C8 5.34 8 4.68 8 4 C5.69 4 3.38 4 1 4 C1 4.66 1 5.32 1 6 C0.34 6 -0.32 6 -1 6 C-0.67 4.02 -0.34 2.04 0 0 Z " fill="#999EA4" transform="translate(200,382)"/>
<path d="M0 0 C2.64752004 2.57784846 4.94432065 4.91648098 7 8 C4 9 4 9 1 8 C1 9.65 1 11.3 1 13 C0.67 13 0.34 13 0 13 C0 8.71 0 4.42 0 0 Z " fill="#2C2E34" transform="translate(145,345)"/>
<path d="M0 0 C2.475 0.495 2.475 0.495 5 1 C4.01 1.33 3.02 1.66 2 2 C3.65 7.61 5.3 13.22 7 19 C4 18 4 18 3.0859375 16.25 C1.36474624 10.80271338 0.45224817 5.698327 0 0 Z " fill="#4C9ECC" transform="translate(222,161)"/>
<path d="M0 0 C0.66 0 1.32 0 2 0 C2 3.96 2 7.92 2 12 C1.01 12 0.02 12 -1 12 C-2.6875 9.5 -2.6875 9.5 -4 7 C-3.01 6.67 -2.02 6.34 -1 6 C-0.67 4.02 -0.34 2.04 0 0 Z " fill="#9FA2A9" transform="translate(223,376)"/>
<path d="M0 0 C0.99 0 1.98 0 3 0 C3 3.96 3 7.92 3 12 C2.01 12 1.02 12 0 12 C0 8.04 0 4.08 0 0 Z " fill="#8D9197" transform="translate(152,376)"/>
<path d="M0 0 C0.33 0 0.66 0 1 0 C1.0292483 3.20831391 1.04688189 6.41659307 1.0625 9.625 C1.07087891 10.52863281 1.07925781 11.43226563 1.08789062 12.36328125 C1.10491895 17.02904289 0.96829423 21.41013285 0 26 C-0.33 26 -0.66 26 -1 26 C-1.19601608 24.25093341 -1.38147403 22.50068154 -1.5625 20.75 C-1.66691406 19.77546875 -1.77132813 18.8009375 -1.87890625 17.796875 C-1.99276954 15.16700031 -1.70213517 13.49648061 -1 11 C-0.78351622 9.08639029 -0.59743032 7.16916379 -0.4375 5.25 C-0.35371094 4.26515625 -0.26992188 3.2803125 -0.18359375 2.265625 C-0.12300781 1.51796875 -0.06242187 0.7703125 0 0 Z " fill="#534BA8" transform="translate(331,196)"/>
<path d="M0 0 C1.66842534 0.32441604 3.33480481 0.65939189 5 1 C5.66 1.0825 6.32 1.165 7 1.25 C10.05036915 2.39388843 11.78166246 4.66790156 14 7 C14.99 7.66 15.98 8.32 17 9 C16.67 9.66 16.34 10.32 16 11 C14.26847042 9.92044741 12.53988316 8.83617488 10.8125 7.75 C9.84957031 7.14671875 8.88664062 6.5434375 7.89453125 5.921875 C5.12594673 4.08362455 2.56042049 2.11574051 0 0 Z " fill="#5B7FC4" transform="translate(263,186)"/>
<path d="M0 0 C0.763125 0.309375 1.52625 0.61875 2.3125 0.9375 C7.17314841 2.33802581 11.96858173 2.65979734 17 3 C17 3.33 17 3.66 17 4 C13.7 4 10.4 4 7 4 C6.67 4.99 6.34 5.98 6 7 C5.5875 6.505 5.175 6.01 4.75 5.5 C2.87797662 3.56613908 2.87797662 3.56613908 -1 4 C-0.67 2.68 -0.34 1.36 0 0 Z " fill="#B5B3B8" transform="translate(338,355)"/>
<path d="M0 0 C1.65 1.65 3.3 3.3 5 5 C1.92307254 7.6815279 -0.19734663 8.42087807 -4.25 8.6875 C-5.14203125 8.75324219 -6.0340625 8.81898438 -6.953125 8.88671875 C-7.62859375 8.92410156 -8.3040625 8.96148437 -9 9 C-9 8.34 -9 7.68 -9 7 C-5.62182575 6.15545644 -3.32534757 5.89155081 0 7 C0 4.69 0 2.38 0 0 Z " fill="#1E2128" transform="translate(217,381)"/>
<path d="M0 0 C2.5 2.3125 2.5 2.3125 5 5 C5 5.99 5 6.98 5 8 C2.6875 8.625 2.6875 8.625 0 9 C-0.99 8.34 -1.98 7.68 -3 7 C-2.01 7 -1.02 7 0 7 C0 4.69 0 2.38 0 0 Z " fill="#202529" transform="translate(162,381)"/>
<path d="M0 0 C0.33 0 0.66 0 1 0 C2.50697431 6.92880581 1.8295156 11.93772796 -2 18 C-2.66 18.33 -3.32 18.66 -4 19 C-2.02 9.595 -2.02 9.595 0 0 Z " fill="#292257" transform="translate(331,216)"/>
<path d="M0 0 C0.99 0.33 1.98 0.66 3 1 C4.18823797 4.56471391 4.26274852 7.2558336 4 11 C2.484375 13.22265625 2.484375 13.22265625 1 15 C1.01160156 14.25234375 1.02320313 13.5046875 1.03515625 12.734375 C1.04417969 11.74953125 1.05320313 10.7646875 1.0625 9.75 C1.07410156 8.77546875 1.08570313 7.8009375 1.09765625 6.796875 C1.01195577 4.34241322 0.70706066 2.33831086 0 0 Z " fill="#5F88CA" transform="translate(234,200)"/>
<path d="M0 0 C4.12751449 0.60698743 7.3321148 2.03810791 11 4 C7.94736336 4.98120464 6.05263664 4.98120464 3 4 C3 5.98 3 7.96 3 10 C1.11608215 6.73454239 0.50712033 3.71888239 0 0 Z " fill="#D8F8FE" transform="translate(224,163)"/>
<path d="M0 0 C0.66 0 1.32 0 2 0 C1.125 4.75 1.125 4.75 0 7 C-3.4375 7.75 -3.4375 7.75 -7 8 C-7.66 7.34 -8.32 6.68 -9 6 C-8.15115234 5.72736328 -8.15115234 5.72736328 -7.28515625 5.44921875 C-6.55167969 5.19785156 -5.81820313 4.94648438 -5.0625 4.6875 C-3.96615234 4.32205078 -3.96615234 4.32205078 -2.84765625 3.94921875 C-0.64067976 3.08759559 -0.64067976 3.08759559 0 0 Z " fill="#8F949A" transform="translate(274,381)"/>
<path d="M0 0 C0 3.96 0 7.92 0 12 C-0.33 12 -0.66 12 -1 12 C-1.33 10.02 -1.66 8.04 -2 6 C-2.66 6 -3.32 6 -4 6 C-4.33 6.99 -4.66 7.98 -5 9 C-5 6.36 -5 3.72 -5 1 C-1.125 0 -1.125 0 0 0 Z " fill="#1C1F26" transform="translate(296,376)"/>
<path d="M0 0 C1.27230469 0.00902344 2.54460937 0.01804687 3.85546875 0.02734375 C5.31919922 0.04474609 5.31919922 0.04474609 6.8125 0.0625 C6.8125 1.0525 6.8125 2.0425 6.8125 3.0625 C6.07644531 3.03929687 5.34039062 3.01609375 4.58203125 2.9921875 C3.11830078 2.96511719 3.11830078 2.96511719 1.625 2.9375 C0.18060547 2.90269531 0.18060547 2.90269531 -1.29296875 2.8671875 C-4.31562778 3.0711456 -6.45519985 3.79375368 -9.1875 5.0625 C-9.5175 3.7425 -9.8475 2.4225 -10.1875 1.0625 C-6.62704823 -0.12431726 -3.74941663 -0.03439832 0 0 Z " fill="#784FCE" transform="translate(226.1875,279.9375)"/>
<path d="M0 0 C0.99 0.33 1.98 0.66 3 1 C1.35 5.95 -0.3 10.9 -2 16 C-2.33 16 -2.66 16 -3 16 C-3.37851209 10.06997733 -2.10575375 5.52760359 0 0 Z " fill="#6672C7" transform="translate(226,234)"/>
<path d="M0 0 C0 2.97 0 5.94 0 9 C-3 9 -3 9 -6 7 C-3.60526316 0 -3.60526316 0 0 0 Z " fill="#191D23" transform="translate(280,379)"/>
<path d="M0 0 C0.66 0 1.32 0 2 0 C2 3.96 2 7.92 2 12 C1.01 12 0.02 12 -1 12 C-1.33 10.68 -1.66 9.36 -2 8 C-1.34 8 -0.68 8 0 8 C0 5.36 0 2.72 0 0 Z " fill="#A7ADB1" transform="translate(305,376)"/>
<path d="M0 0 C0.66 0 1.32 0 2 0 C2.96070434 2.88211302 3.10581883 4.69850044 3.0625 7.6875 C3.05347656 8.49574219 3.04445313 9.30398437 3.03515625 10.13671875 C3.02355469 10.75160156 3.01195312 11.36648437 3 12 C2.01 12.495 2.01 12.495 1 13 C-0.10228696 8.59085217 -0.07654536 4.51617599 0 0 Z " fill="#5A5DC4" transform="translate(328,190)"/>
<path d="M0 0 C1.11375 0.350625 2.2275 0.70125 3.375 1.0625 C6.80264476 2.37239331 6.80264476 2.37239331 9 1 C8.34099246 4.07536854 7.46132217 6.07735566 6 9 C4.02 6.03 2.04 3.06 0 0 Z " fill="#39383F" transform="translate(54,386)"/>
<path d="M0 0 C1.65 0.33 3.3 0.66 5 1 C4.67 2.65 4.34 4.3 4 6 C1.36 6 -1.28 6 -4 6 C-4 5.34 -4 4.68 -4 4 C-1.69 4 0.62 4 3 4 C3 3.34 3 2.68 3 2 C2.01 1.67 1.02 1.34 0 1 C0 0.67 0 0.34 0 0 Z " fill="#A3A6AB" transform="translate(179,382)"/>
<path d="M0 0 C-1.6875 1.5625 -1.6875 1.5625 -4 3 C-6.75 2.6875 -6.75 2.6875 -9 2 C-9 2.66 -9 3.32 -9 4 C-11.31 4.33 -13.62 4.66 -16 5 C-14.54987453 2.09974906 -12.68687091 1.91293145 -9.6875 0.8125 C-8.72199219 0.44769531 -7.75648438 0.08289063 -6.76171875 -0.29296875 C-3.9652203 -1.008904 -2.66140462 -0.99249531 0 0 Z " fill="#5C5C61" transform="translate(180,23)"/>
<path d="M0 0 C2.31 1.98 4.62 3.96 7 6 C5 7 3 8 1 9 C0.34 8.34 -0.32 7.68 -1 7 C-0.625 3.375 -0.625 3.375 0 0 Z " fill="#0C0F16" transform="translate(322,382)"/>
<path d="M0 0 C3.39208378 3.39208378 4.02657897 5.37625011 5 10 C4.625 12.4375 4.625 12.4375 4 14 C3.67 12.35 3.34 10.7 3 9 C2.34 9 1.68 9 1 9 C0.67 6.03 0.34 3.06 0 0 Z " fill="#4A58A3" transform="translate(326,179)"/>
<path d="M0 0 C0.66 0.99 1.32 1.98 2 3 C1.5390625 5.26171875 1.5390625 5.26171875 0.625 7.6875 C0.18027344 8.89986328 0.18027344 8.89986328 -0.2734375 10.13671875 C-0.51320312 10.75160156 -0.75296875 11.36648437 -1 12 C-1.66 12 -2.32 12 -3 12 C-2.14285714 3.42857143 -2.14285714 3.42857143 0 0 Z " fill="#2A94B5" transform="translate(176,178)"/>
<path d="M0 0 C7.38461538 1.35384615 7.38461538 1.35384615 10.5 4.625 C10.995 5.40875 11.49 6.1925 12 7 C11.01 7.495 11.01 7.495 10 8 C8.33055479 6.85821872 6.6645052 5.71147095 5 4.5625 C4.071875 3.92441406 3.14375 3.28632813 2.1875 2.62890625 C1.465625 2.09136719 0.74375 1.55382812 0 1 C0 0.67 0 0.34 0 0 Z " fill="#498CC2" transform="translate(240,170)"/>
<path d="M0 0 C0.66 0.66 1.32 1.32 2 2 C-0.64 5.3 -3.28 8.6 -6 12 C-7 9 -7 9 -5.8125 6.5625 C-4.06020951 4.08512378 -2.21684517 2.0639593 0 0 Z " fill="#06293D" transform="translate(189,153)"/>
<path d="M0 0 C1.2065625 0.0309375 1.2065625 0.0309375 2.4375 0.0625 C1.30030581 3.47408256 0.39407056 4.18104601 -2.5625 6.0625 C-3.2225 6.0625 -3.8825 6.0625 -4.5625 6.0625 C-3.48963568 0.08511307 -3.48963568 0.08511307 0 0 Z " fill="#25282F" transform="translate(331.5625,377.9375)"/>
<path d="M0 0 C0.33 0 0.66 0 1 0 C1 6.6 1 13.2 1 20 C0.67 20 0.34 20 0 20 C0 15.05 0 10.1 0 5 C-0.66 5 -1.32 5 -2 5 C-1.125 1.125 -1.125 1.125 0 0 Z " fill="#2F3135" transform="translate(233,345)"/>
<path d="M0 0 C0.99 0 1.98 0 3 0 C1.5140084 4.59306496 -0.85014682 7.43569245 -4 11 C-5 8 -5 8 -4.109375 5.95703125 C-3.66078125 5.24933594 -3.2121875 4.54164063 -2.75 3.8125 C-2.31171875 3.09707031 -1.8734375 2.38164062 -1.421875 1.64453125 C-0.95265625 1.10183594 -0.4834375 0.55914062 0 0 Z " fill="#7F46C8" transform="translate(316,249)"/>
<path d="M0 0 C2.31 0.33 4.62 0.66 7 1 C7 1.66 7 2.32 7 3 C8.98 3.99 10.96 4.98 13 6 C12.34 6.66 11.68 7.32 11 8 C9.16399255 6.85845641 7.33125195 5.71165684 5.5 4.5625 C4.4790625 3.92441406 3.458125 3.28632813 2.40625 2.62890625 C1.6121875 2.09136719 0.818125 1.55382812 0 1 C0 0.67 0 0.34 0 0 Z " fill="#6578C3" transform="translate(280,197)"/>
<path d="M0 0 C0.66 0.33 1.32 0.66 2 1 C1.37755401 2.27208622 0.75193233 3.54261882 0.125 4.8125 C-0.22304687 5.52019531 -0.57109375 6.22789062 -0.9296875 6.95703125 C-2 9 -2 9 -4 12 C-3.9129995 10.37399059 -3.8048219 8.74910322 -3.6875 7.125 C-3.62949219 6.22007812 -3.57148438 5.31515625 -3.51171875 4.3828125 C-3 2 -3 2 0 0 Z " fill="#082D44" transform="translate(180,166)"/>
<path d="M0 0 C3.63 2.31 7.26 4.62 11 7 C10.01 7.66 9.02 8.32 8 9 C7.79375 8.360625 7.5875 7.72125 7.375 7.0625 C6.10461791 4.65074923 6.10461791 4.65074923 2.875 4.25 C1.92625 4.1675 0.9775 4.085 0 4 C0 2.68 0 1.36 0 0 Z " fill="#3497C4" transform="translate(292,138)"/>
<path d="M0 0 C1.32 0 2.64 0 4 0 C4 1.65 4 3.3 4 5 C3.01 5.33 2.02 5.66 1 6 C0.34 5.67 -0.32 5.34 -1 5 C-0.67 3.35 -0.34 1.7 0 0 Z " fill="#172029" transform="translate(322,113)"/>
<path d="M0 0 C0.33 0 0.66 0 1 0 C1 6.93 1 13.86 1 21 C0.01 20.01 -0.98 19.02 -2 18 C-1.67 17.67 -1.34 17.34 -1 17 C-0.76298761 14.14122091 -0.57780818 11.30116703 -0.4375 8.4375 C-0.39431641 7.63119141 -0.35113281 6.82488281 -0.30664062 5.99414062 C-0.20024738 3.99631195 -0.09959112 1.9981793 0 0 Z " fill="#2E2F32" transform="translate(160,328)"/>
<path d="M0 0 C-1.875 3.875 -1.875 3.875 -3 5 C-5.33297433 5.04092937 -7.66705225 5.04241723 -10 5 C-4.03225806 0 -4.03225806 0 0 0 Z " fill="#20193C" transform="translate(202,293)"/>
<path d="M0 0 C0.66 0 1.32 0 2 0 C1.44271087 3.34373475 0.64826111 6.03312999 -1 9 C-1.99 8.67 -2.98 8.34 -4 8 C-1.125 1.125 -1.125 1.125 0 0 Z " fill="#7843D8" transform="translate(325,228)"/>
<path d="M0 0 C2.31 0 4.62 0 7 0 C6.34 0.66 5.68 1.32 5 2 C5.99 2.66 6.98 3.32 8 4 C1.25 4.125 1.25 4.125 -1 3 C-0.67 2.01 -0.34 1.02 0 0 Z " fill="#3A84CB" transform="translate(252,176)"/>
<path d="M0 0 C5.06998019 0.65419099 9.41990777 2.8546409 14 5 C10.22134307 6.25955231 8.96588214 5.48087189 5.3125 4.0625 C4.31863281 3.68222656 3.32476562 3.30195313 2.30078125 2.91015625 C1.54152344 2.60980469 0.78226562 2.30945313 0 2 C0 1.34 0 0.68 0 0 Z " fill="#329FC3" transform="translate(277,132)"/>
<path d="M0 0 C1 2 1 2 0.25 4.4375 C-0.95334548 6.90435824 -1.8762505 8.3010004 -4 10 C-4.99 10.33 -5.98 10.66 -7 11 C-5.66666667 8.33333333 -4.33333333 5.66666667 -3 3 C-2.34 3 -1.68 3 -1 3 C-0.67 2.01 -0.34 1.02 0 0 Z " fill="#505054" transform="translate(60,105)"/>
<path d="M0 0 C2.79872437 2.52788007 4.45773019 4.20411134 5 8 C4.01 8 3.02 8 2 8 C2.33 7.34 2.66 6.68 3 6 C2.34 6 1.68 6 1 6 C0.67 6.66 0.34 7.32 0 8 C0 5.36 0 2.72 0 0 Z " fill="#252930" transform="translate(298,380)"/>
<path d="M0 0 C0.33 0 0.66 0 1 0 C1.66 2.31 2.32 4.62 3 7 C1.02 7.33 -0.96 7.66 -3 8 C-3 7.34 -3 6.68 -3 6 C-3.66 5.67 -4.32 5.34 -5 5 C-4.01 5 -3.02 5 -2 5 C-2 4.34 -2 3.68 -2 3 C-1.34 3 -0.68 3 0 3 C0 2.01 0 1.02 0 0 Z " fill="#2E3339" transform="translate(262,380)"/>
<path d="M0 0 C3.96 0.33 7.92 0.66 12 1 C12.33 1.99 12.66 2.98 13 4 C8.428721 3.45144652 4.32564205 2.58255197 0 1 C0 0.67 0 0.34 0 0 Z " fill="#6543AB" transform="translate(226,282)"/>
<path d="M0 0 C2.5 2.25 2.5 2.25 5 5 C5 6.32 5 7.64 5 9 C3.02 8.34 1.04 7.68 -1 7 C-0.34 6.67 0.32 6.34 1 6 C0.67 4.02 0.34 2.04 0 0 Z " fill="#378EC3" transform="translate(311,153)"/>
<path d="M0 0 C2.31 0.33 4.62 0.66 7 1 C7 2.65 7 4.3 7 6 C7.66 6 8.32 6 9 6 C8.67 6.66 8.34 7.32 8 8 C6.66372225 6.85760183 5.33104612 5.71098945 4 4.5625 C3.2575 3.92441406 2.515 3.28632813 1.75 2.62890625 C1.1725 2.09136719 0.595 1.55382812 0 1 C0 0.67 0 0.34 0 0 Z " fill="#092940" transform="translate(302,144)"/>
<path d="M0 0 C0.33 0.66 0.66 1.32 1 2 C-0.54442235 5.63393495 -1.48567857 6.78822059 -5.1875 8.3125 C-6.5796875 8.6528125 -6.5796875 8.6528125 -8 9 C-6.625 7 -6.625 7 -5 5 C-4.34 5 -3.68 5 -3 5 C-2.690625 4.360625 -2.38125 3.72125 -2.0625 3.0625 C-1 1 -1 1 0 0 Z " fill="#2F174D" transform="translate(311,260)"/>
<path d="M0 0 C3.3 1.98 6.6 3.96 10 6 C6 7 6 7 3.875 6.375 C2 5 2 5 0 0 Z " fill="#D3F0FB" transform="translate(235,168)"/>
<path d="M0 0 C2.64 0 5.28 0 8 0 C8 0.99 8 1.98 8 3 C7.67 2.34 7.34 1.68 7 1 C6.67 2.32 6.34 3.64 6 5 C5.34 5 4.68 5 4 5 C4 4.34 4 3.68 4 3 C2.68 2.34 1.36 1.68 0 1 C0 0.67 0 0.34 0 0 Z " fill="#292B32" transform="translate(327,26)"/>
<path d="M0 0 C0.33 0 0.66 0 1 0 C1 3.3 1 6.6 1 10 C-3 8 -3 8 -3.75 5.875 C-3.8325 5.25625 -3.915 4.6375 -4 4 C-2.515 4.99 -2.515 4.99 -1 6 C-0.67 4.02 -0.34 2.04 0 0 Z " fill="#B1B5BB" transform="translate(289,377)"/>
<path d="M0 0 C1.4540625 0.0309375 1.4540625 0.0309375 2.9375 0.0625 C3.2675 1.0525 3.5975 2.0425 3.9375 3.0625 C3.009375 3.02125 2.08125 2.98 1.125 2.9375 C-2.22059719 2.79113661 -2.22059719 2.79113661 -5.0625 5.0625 C-3.9375 0.08035714 -3.9375 0.08035714 0 0 Z " fill="#A3A6AE" transform="translate(255.0625,375.9375)"/>
<path d="M0 0 C2.87579981 4.31369972 4 7.80734761 4 13 C3.34 13 2.68 13 2 13 C1.66127487 11.58461283 1.32925376 10.16762037 1 8.75 C0.814375 7.96109375 0.62875 7.1721875 0.4375 6.359375 C0 4 0 4 0 0 Z " fill="#0D2445" transform="translate(173,227)"/>
<path d="M0 0 C0.99 0.33 1.98 0.66 3 1 C3 2.65 3 4.3 3 6 C1.35 6.66 -0.3 7.32 -2 8 C-1.67 7.236875 -1.34 6.47375 -1 5.6875 C0.17436686 3.00930865 0.17436686 3.00930865 0 0 Z " fill="#E5ECFD" transform="translate(289,204)"/>
<path d="M0 0 C-3.32307692 3.93846154 -3.32307692 3.93846154 -6.75 4.25 C-7.4925 4.1675 -8.235 4.085 -9 4 C-8.67 3.34 -8.34 2.68 -8 2 C-7.34 2 -6.68 2 -6 2 C-6 1.34 -6 0.68 -6 0 C-3 -1 -3 -1 0 0 Z " fill="#18C0E5" transform="translate(218,138)"/>
<path d="M0 0 C2.97 0.495 2.97 0.495 6 1 C5.01 3.64 4.02 6.28 3 9 C2.34 7.68 1.68 6.36 1 5 C1.33 4.67 1.66 4.34 2 4 C1.34 2.68 0.68 1.36 0 0 Z " fill="#1D2228" transform="translate(197,376)"/>
<path d="M0 0 C1.32 0.66 2.64 1.32 4 2 C2.515 4.475 2.515 4.475 1 7 C0.34 6.67 -0.32 6.34 -1 6 C-1.042721 4.33388095 -1.04063832 2.66617115 -1 1 C-0.67 0.67 -0.34 0.34 0 0 Z " fill="#1B1E25" transform="translate(172,376)"/>
<path d="M0 0 C0.66 0.33 1.32 0.66 2 1 C2 1.66 2 2.32 2 3 C2.66 3 3.32 3 4 3 C4.33 3.99 4.66 4.98 5 6 C3 6 1 6 -1 6 C-1.33 5.01 -1.66 4.02 -2 3 C-1.34 2.01 -0.68 1.02 0 0 Z " fill="#23272C" transform="translate(155,357)"/>
<path d="M0 0 C0.66 0 1.32 0 2 0 C1.67 3.63 1.34 7.26 1 11 C0.67 11 0.34 11 0 11 C-0.19406478 9.35492782 -0.38007935 7.70890406 -0.5625 6.0625 C-0.66691406 5.14597656 -0.77132813 4.22945313 -0.87890625 3.28515625 C-0.91886719 2.53105469 -0.95882813 1.77695312 -1 1 C-0.67 0.67 -0.34 0.34 0 0 Z " fill="#353139" transform="translate(477,313)"/>
<path d="M0 0 C1.2065625 0.0309375 1.2065625 0.0309375 2.4375 0.0625 C-2.1875 4.9375 -2.1875 4.9375 -5.5625 6.0625 C-3.26136364 0.07954545 -3.26136364 0.07954545 0 0 Z " fill="#823ECC" transform="translate(301.5625,266.9375)"/>
<path d="M0 0 C-1.39332574 3.36720387 -2.9789286 4.9859524 -6 7 C-6.99 6.34 -7.98 5.68 -9 5 C-7.87926138 4.16094435 -6.75325453 3.32892169 -5.625 2.5 C-4.99851562 2.0359375 -4.37203125 1.571875 -3.7265625 1.09375 C-2 0 -2 0 0 0 Z " fill="#5C5B66" transform="translate(117,52)"/>
<path d="M0 0 C1.32 0.66 2.64 1.32 4 2 C1.03 3.65 -1.94 5.3 -5 7 C-3.88820837 3.66462511 -2.52588702 2.36292656 0 0 Z " fill="#424046" transform="translate(380,446)"/>
<path d="M0 0 C0.99 0.33 1.98 0.66 3 1 C4 4 4 4 4 7 C3.01 7 2.02 7 1 7 C0 6 0 6 -0.0625 2.9375 C-0.041875 1.968125 -0.02125 0.99875 0 0 Z " fill="#2C2C33" transform="translate(115,441)"/>
<path d="M0 0 C0.33 0.66 0.66 1.32 1 2 C2.89533342 2.46523063 2.89533342 2.46523063 5.0625 2.625 C6.361875 2.74875 7.66125 2.8725 9 3 C6 5 6 5 3.73828125 4.7578125 C2.93777344 4.54898437 2.13726562 4.34015625 1.3125 4.125 C0.50425781 3.92132813 -0.30398438 3.71765625 -1.13671875 3.5078125 C-1.75160156 3.34023438 -2.36648438 3.17265625 -3 3 C-2.01 2.67 -1.02 2.34 0 2 C0 1.34 0 0.68 0 0 Z " fill="#C9C5CA" transform="translate(305,355)"/>
<path d="M0 0 C0.33 0 0.66 0 1 0 C1.08159574 4.16138263 0.98248524 7.9472484 0 12 C-1.5 10.6875 -1.5 10.6875 -3 9 C-3 8.01 -3 7.02 -3 6 C-2.01 6 -1.02 6 0 6 C0 4.02 0 2.04 0 0 Z " fill="#56555B" transform="translate(485,283)"/>
<path d="M0 0 C2.71928517 0.37507382 3.84218661 0.84218661 5.8125 2.8125 C7 5 7 5 6.57421875 7.13671875 C6.38472656 7.75160156 6.19523438 8.36648438 6 9 C4.99712471 7.68969568 3.99777175 6.37669473 3 5.0625 C2.443125 4.33160156 1.88625 3.60070312 1.3125 2.84765625 C0 1 0 1 0 0 Z " fill="#4D5EAF" transform="translate(185,252)"/>
<path d="M0 0 C1.32 0.33 2.64 0.66 4 1 C3.67 1.66 3.34 2.32 3 3 C3.99 3.33 4.98 3.66 6 4 C5 5 5 5 2.4375 5.0625 C1.2309375 5.0315625 1.2309375 5.0315625 0 5 C0 3.35 0 1.7 0 0 Z " fill="#EBEFFC" transform="translate(224,246)"/>
<path d="M0 0 C0.33 0 0.66 0 1 0 C0.609375 6.0546875 0.609375 6.0546875 0 8 C-1.98 8.99 -1.98 8.99 -4 10 C-2.68 6.7 -1.36 3.4 0 0 Z " fill="#2A1950" transform="translate(326,236)"/>
<path d="M0 0 C0.99 0.33 1.98 0.66 3 1 C2.67 4.3 2.34 7.6 2 11 C1.67 11 1.34 11 1 11 C0.67 7.37 0.34 3.74 0 0 Z " fill="#3C81C2" transform="translate(172,216)"/>
<path d="M0 0 C3.3 0.33 6.6 0.66 10 1 C10 1.66 10 2.32 10 3 C2.25 3.125 2.25 3.125 0 2 C0 1.34 0 0.68 0 0 Z " fill="#2794CF" transform="translate(225,160)"/>
<path d="M0 0 C0.33 0.99 0.66 1.98 1 3 C-0.32 3.99 -1.64 4.98 -3 6 C-3.66 4.68 -4.32 3.36 -5 2 C-2 0 -2 0 0 0 Z " fill="#3C3C41" transform="translate(438,394)"/>
<path d="M0 0 C-0.66 1.32 -1.32 2.64 -2 4 C-2.99 4 -3.98 4 -5 4 C-5.33 3.67 -5.66 3.34 -6 3 C-6.66 2.67 -7.32 2.34 -8 2 C-4.91190305 0.23537317 -3.76687864 0 0 0 Z " fill="#221B41" transform="translate(216,287)"/>
<path d="M0 0 C2.40072955 2.88087546 4.47291037 5.56404834 6 9 C5.01 9.33 4.02 9.66 3 10 C2.67 8.02 2.34 6.04 2 4 C1.34 4 0.68 4 0 4 C0 2.68 0 1.36 0 0 Z " fill="#142243" transform="translate(182,248)"/>
<path d="M0 0 C0.66 0 1.32 0 2 0 C1.25 6.75 1.25 6.75 -1 9 C-1.09765625 2.84765625 -1.09765625 2.84765625 -1 1 C-0.67 0.67 -0.34 0.34 0 0 Z " fill="#556BC6" transform="translate(229,225)"/>
<path d="M0 0 C0.99 0.33 1.98 0.66 3 1 C3.6875 3.3125 3.6875 3.3125 4 6 C3.01 6.99 2.02 7.98 1 9 C0.67 6.03 0.34 3.06 0 0 Z " fill="#528ACC" transform="translate(231,192)"/>
<path d="M0 0 C2 4 2 4 1.3125 6.1875 C0 8 0 8 -3 9 C-2.01 6.03 -1.02 3.06 0 0 Z " fill="#535157" transform="translate(33,149)"/>
<path d="M0 0 C0.66 0 1.32 0 2 0 C0.50902342 3.7952131 -1.75700849 5.61042731 -5 8 C-5.66 7.67 -6.32 7.34 -7 7 C-5.37660195 5.29115995 -3.70680947 3.62553283 -2 2 C-1.34 2 -0.68 2 0 2 C0 1.34 0 0.68 0 0 Z " fill="#5D5E63" transform="translate(93,69)"/>
<path d="M0 0 C0.99 0.66 1.98 1.32 3 2 C1.02 3.32 -0.96 4.64 -3 6 C-3.33 5.01 -3.66 4.02 -4 3 C-3.34 3 -2.68 3 -2 3 C-2 2.34 -2 1.68 -2 1 C-1.34 0.67 -0.68 0.34 0 0 Z " fill="#404043" transform="translate(389,440)"/>
<path d="M0 0 C2.125 0.375 2.125 0.375 4 1 C3.01 1 2.02 1 1 1 C1.33 2.32 1.66 3.64 2 5 C1.34 5 0.68 5 0 5 C-0.66 5.66 -1.32 6.32 -2 7 C-2.125 4.625 -2.125 4.625 -2 2 C-1.34 1.34 -0.68 0.68 0 0 Z " fill="#2C2F36" transform="translate(253,378)"/>
<path d="M0 0 C0.99 0 1.98 0 3 0 C3 0.66 3 1.32 3 2 C4.65 2.33 6.3 2.66 8 3 C5.01758453 3.77321882 2.02419525 4.41196203 -1 5 C-0.67 3.35 -0.34 1.7 0 0 Z " fill="#4F5057" transform="translate(333,360)"/>
<path d="M0 0 C6.15234375 -0.09765625 6.15234375 -0.09765625 8 0 C9 1 9 1 9.0625 4.0625 C9.041875 5.031875 9.02125 6.00125 9 7 C8.814375 6.38125 8.62875 5.7625 8.4375 5.125 C6.28562767 1.94397134 3.62466237 1.80548053 0 1 C0 0.67 0 0.34 0 0 Z " fill="#A0A0A3" transform="translate(348,350)"/>
<path d="M0 0 C0.99 0.33 1.98 0.66 3 1 C3 2.65 3 4.3 3 6 C1.68 5.34 0.36 4.68 -1 4 C-0.67 2.68 -0.34 1.36 0 0 Z " fill="#2C2B31" transform="translate(346,336)"/>
<path d="M0 0 C0.66 0.33 1.32 0.66 2 1 C1.01 2.32 0.02 3.64 -1 5 C-2.65 4.67 -4.3 4.34 -6 4 C-6 3.34 -6 2.68 -6 2 C-4.7934375 1.7834375 -4.7934375 1.7834375 -3.5625 1.5625 C-1.07896294 1.25864751 -1.07896294 1.25864751 0 0 Z " fill="#5E59D3" transform="translate(245,242)"/>
<path d="M0 0 C0 0.99 0 1.98 0 3 C-1.65 3.33 -3.3 3.66 -5 4 C-5 4.66 -5 5.32 -5 6 C-5.99 5.67 -6.98 5.34 -8 5 C-7.34 5 -6.68 5 -6 5 C-5.71125 4.360625 -5.4225 3.72125 -5.125 3.0625 C-3.72314735 0.49243681 -2.91896073 0 0 0 Z " fill="#5E5CD4" transform="translate(259,233)"/>
<path d="M0 0 C0 0.99 0 1.98 0 3 C-2.9375 2.625 -2.9375 2.625 -6 2 C-6.33 1.34 -6.66 0.68 -7 0 C-2.25 -1.125 -2.25 -1.125 0 0 Z " fill="#2C89D0" transform="translate(248,169)"/>
<path d="M0 0 C2.64 1.98 5.28 3.96 8 6 C6.68 6.33 5.36 6.66 4 7 C1.75 5.25 1.75 5.25 0 3 C0 2.01 0 1.02 0 0 Z " fill="#3491C1" transform="translate(303,146)"/>
<path d="M0 0 C1.32 0.66 2.64 1.32 4 2 C2.35 3.32 0.7 4.64 -1 6 C-1.33 4.68 -1.66 3.36 -2 2 C-1.34 2 -0.68 2 0 2 C0 1.34 0 0.68 0 0 Z " fill="#072330" transform="translate(195,145)"/>
<path d="M0 0 C0 2 0 2 -1.125 3.5625 C-3.63946978 5.49026016 -5.89545967 5.65505107 -9 6 C-3.2 0 -3.2 0 0 0 Z " fill="#29A5C1" transform="translate(212,138)"/>
<path d="M0 0 C-1.29009643 0.50403768 -2.58213789 1.00309926 -3.875 1.5 C-4.95394531 1.91765625 -4.95394531 1.91765625 -6.0546875 2.34375 C-8 3 -8 3 -10 3 C-9.67 2.01 -9.34 1.02 -9 0 C-5.5657338 -0.85856655 -3.38317487 -0.97591583 0 0 Z " fill="#03283A" transform="translate(228,131)"/>
<path d="M0 0 C0.66 0 1.32 0 2 0 C3.625 2.5 3.625 2.5 5 5 C4.01 5 3.02 5 2 5 C1.34 5.66 0.68 6.32 0 7 C0 4.69 0 2.38 0 0 Z " fill="#42464C" transform="translate(282,381)"/>
<path d="M0 0 C0.6875 1.8125 0.6875 1.8125 1 4 C-0.4375 5.75 -0.4375 5.75 -2 7 C-2.99 6.67 -3.98 6.34 -5 6 C-4.34 5.01 -3.68 4.02 -3 3 C-2.01 3 -1.02 3 0 3 C0 2.01 0 1.02 0 0 Z " fill="#403F47" transform="translate(453,371)"/>
<path d="M0 0 C2.64 0.33 5.28 0.66 8 1 C8 1.33 8 1.66 8 2 C6.329375 2.2165625 6.329375 2.2165625 4.625 2.4375 C1.17857953 2.78372035 1.17857953 2.78372035 -1 4 C-0.67 2.68 -0.34 1.36 0 0 Z " fill="#D1CFD2" transform="translate(346,333)"/>
<path d="M0 0 C-1 3 -1 3 -4 5 C-6.1875 4.625 -6.1875 4.625 -8 4 C-2.25 0 -2.25 0 0 0 Z " fill="#2D144C" transform="translate(296,274)"/>
<path d="M0 0 C3.875 1.875 3.875 1.875 5 3 C5.04063832 4.66617115 5.042721 6.33388095 5 8 C2.74754119 5.31158141 1.11786042 3.35358125 0 0 Z " fill="#4564B0" transform="translate(179,242)"/>
<path d="M0 0 C0.66 0 1.32 0 2 0 C2 2.64 2 5.28 2 8 C0.68 6.35 -0.64 4.7 -2 3 C-1.34 2.67 -0.68 2.34 0 2 C0 1.34 0 0.68 0 0 Z " fill="#2A86CE" transform="translate(227,180)"/>
<path d="M0 0 C0.66 0.33 1.32 0.66 2 1 C2 2.32 2 3.64 2 5 C0.68 5.33 -0.64 5.66 -2 6 C-1.67 5.01 -1.34 4.02 -1 3 C-1.66 2.67 -2.32 2.34 -3 2 C-2.01 1.34 -1.02 0.68 0 0 Z " fill="#414247" transform="translate(133,41)"/>
</svg>
